%TF.GenerationSoftware,KiCad,Pcbnew,9.0.6*%
%TF.CreationDate,2026-07-26T21:26:29+04:00*%
%TF.ProjectId,pentagon-rom-selector,70656e74-6167-46f6-9e2d-726f6d2d7365,rev?*%
%TF.SameCoordinates,Original*%
%TF.FileFunction,Soldermask,Top*%
%TF.FilePolarity,Negative*%
%FSLAX46Y46*%
G04 Gerber Fmt 4.6, Leading zero omitted, Abs format (unit mm)*
G04 Created by KiCad (PCBNEW 9.0.6) date 2026-07-26 21:26:29*
%MOMM*%
%LPD*%
G01*
G04 APERTURE LIST*
G04 Aperture macros list*
%AMRoundRect*
0 Rectangle with rounded corners*
0 $1 Rounding radius*
0 $2 $3 $4 $5 $6 $7 $8 $9 X,Y pos of 4 corners*
0 Add a 4 corners polygon primitive as box body*
4,1,4,$2,$3,$4,$5,$6,$7,$8,$9,$2,$3,0*
0 Add four circle primitives for the rounded corners*
1,1,$1+$1,$2,$3*
1,1,$1+$1,$4,$5*
1,1,$1+$1,$6,$7*
1,1,$1+$1,$8,$9*
0 Add four rect primitives between the rounded corners*
20,1,$1+$1,$2,$3,$4,$5,0*
20,1,$1+$1,$4,$5,$6,$7,0*
20,1,$1+$1,$6,$7,$8,$9,0*
20,1,$1+$1,$8,$9,$2,$3,0*%
G04 Aperture macros list end*
%ADD10C,4.700000*%
%ADD11C,2.000000*%
%ADD12R,1.700000X1.700000*%
%ADD13C,1.700000*%
%ADD14RoundRect,0.250000X1.000000X0.650000X-1.000000X0.650000X-1.000000X-0.650000X1.000000X-0.650000X0*%
%ADD15R,1.600000X1.600000*%
%ADD16C,1.600000*%
%ADD17RoundRect,0.137500X-0.600000X-0.137500X0.600000X-0.137500X0.600000X0.137500X-0.600000X0.137500X0*%
%ADD18RoundRect,0.137500X-0.137500X-0.600000X0.137500X-0.600000X0.137500X0.600000X-0.137500X0.600000X0*%
%ADD19RoundRect,0.250000X0.337500X0.475000X-0.337500X0.475000X-0.337500X-0.475000X0.337500X-0.475000X0*%
G04 APERTURE END LIST*
D10*
%TO.C,REF\u002A\u002A*%
X104500000Y-93000000D03*
%TD*%
%TO.C,REF\u002A\u002A*%
X104500000Y-77000000D03*
%TD*%
%TO.C,REF\u002A\u002A*%
X179000000Y-93000000D03*
%TD*%
%TO.C,REF\u002A\u002A*%
X179000000Y-77000000D03*
%TD*%
D11*
%TO.C,SW6*%
X108250000Y-88500000D03*
X108250000Y-82000000D03*
X112750000Y-88500000D03*
X112750000Y-82000000D03*
%TD*%
D12*
%TO.C,J7*%
X111750000Y-92750000D03*
D13*
X109210000Y-92750000D03*
%TD*%
D11*
%TO.C,SW3*%
X175000000Y-88500000D03*
X175000000Y-82000000D03*
X179500000Y-88500000D03*
X179500000Y-82000000D03*
%TD*%
%TO.C,SW1*%
X168250000Y-81500000D03*
X161750000Y-81500000D03*
X168250000Y-77000000D03*
X161750000Y-77000000D03*
%TD*%
D14*
%TO.C,D1*%
X143250000Y-82500000D03*
X139250000Y-82500000D03*
%TD*%
D11*
%TO.C,SW5*%
X129250000Y-88500000D03*
X129250000Y-82000000D03*
X133750000Y-88500000D03*
X133750000Y-82000000D03*
%TD*%
D15*
%TO.C,U1*%
X146880000Y-93000000D03*
D16*
X149420000Y-93000000D03*
X151960000Y-93000000D03*
X154500000Y-93000000D03*
X157040000Y-93000000D03*
X157040000Y-77760000D03*
X154500000Y-77760000D03*
X151960000Y-77760000D03*
X149420000Y-77760000D03*
X146880000Y-77760000D03*
%TD*%
D17*
%TO.C,U2*%
X147797500Y-82702500D03*
X147797500Y-83502500D03*
X147797500Y-84302500D03*
X147797500Y-85102500D03*
X147797500Y-85902500D03*
X147797500Y-86702500D03*
X147797500Y-87502500D03*
X147797500Y-88302500D03*
D18*
X149160000Y-89665000D03*
X149960000Y-89665000D03*
X150760000Y-89665000D03*
X151560000Y-89665000D03*
X152360000Y-89665000D03*
X153160000Y-89665000D03*
X153960000Y-89665000D03*
X154760000Y-89665000D03*
D17*
X156122500Y-88302500D03*
X156122500Y-87502500D03*
X156122500Y-86702500D03*
X156122500Y-85902500D03*
X156122500Y-85102500D03*
X156122500Y-84302500D03*
X156122500Y-83502500D03*
X156122500Y-82702500D03*
D18*
X154760000Y-81340000D03*
X153960000Y-81340000D03*
X153160000Y-81340000D03*
X152360000Y-81340000D03*
X151560000Y-81340000D03*
X150760000Y-81340000D03*
X149960000Y-81340000D03*
X149160000Y-81340000D03*
%TD*%
D11*
%TO.C,SW2*%
X161750000Y-89250000D03*
X168250000Y-89250000D03*
X161750000Y-93750000D03*
X168250000Y-93750000D03*
%TD*%
%TO.C,SW4*%
X118750000Y-88500000D03*
X118750000Y-82000000D03*
X123250000Y-88500000D03*
X123250000Y-82000000D03*
%TD*%
D19*
%TO.C,C1*%
X142250000Y-76250000D03*
X140175000Y-76250000D03*
%TD*%
D12*
%TO.C,J4*%
X139750000Y-93290000D03*
D13*
X139750000Y-90750000D03*
%TD*%
D12*
%TO.C,J3*%
X143500000Y-93250000D03*
D13*
X143500000Y-90710000D03*
X143500000Y-88170000D03*
X143500000Y-85630000D03*
%TD*%
D12*
%TO.C,J2*%
X142500000Y-78750000D03*
D13*
X139960000Y-78750000D03*
%TD*%
D12*
%TO.C,J6*%
X122250000Y-92750000D03*
D13*
X119710000Y-92750000D03*
%TD*%
D15*
%TO.C,BZ1*%
X169250000Y-85500000D03*
D16*
X161650000Y-85500000D03*
%TD*%
D12*
%TO.C,J5*%
X132790000Y-92750000D03*
D13*
X130250000Y-92750000D03*
%TD*%
M02*
