%TF.GenerationSoftware,KiCad,Pcbnew,9.0.6*%
%TF.CreationDate,2026-07-26T21:26:29+04:00*%
%TF.ProjectId,pentagon-rom-selector,70656e74-6167-46f6-9e2d-726f6d2d7365,rev?*%
%TF.SameCoordinates,Original*%
%TF.FileFunction,Copper,L2,Bot*%
%TF.FilePolarity,Positive*%
%FSLAX46Y46*%
G04 Gerber Fmt 4.6, Leading zero omitted, Abs format (unit mm)*
G04 Created by KiCad (PCBNEW 9.0.6) date 2026-07-26 21:26:29*
%MOMM*%
%LPD*%
G01*
G04 APERTURE LIST*
G04 Aperture macros list*
%AMRoundRect*
0 Rectangle with rounded corners*
0 $1 Rounding radius*
0 $2 $3 $4 $5 $6 $7 $8 $9 X,Y pos of 4 corners*
0 Add a 4 corners polygon primitive as box body*
4,1,4,$2,$3,$4,$5,$6,$7,$8,$9,$2,$3,0*
0 Add four circle primitives for the rounded corners*
1,1,$1+$1,$2,$3*
1,1,$1+$1,$4,$5*
1,1,$1+$1,$6,$7*
1,1,$1+$1,$8,$9*
0 Add four rect primitives between the rounded corners*
20,1,$1+$1,$2,$3,$4,$5,0*
20,1,$1+$1,$4,$5,$6,$7,0*
20,1,$1+$1,$6,$7,$8,$9,0*
20,1,$1+$1,$8,$9,$2,$3,0*%
G04 Aperture macros list end*
%TA.AperFunction,ComponentPad*%
%ADD10C,4.700000*%
%TD*%
%TA.AperFunction,ComponentPad*%
%ADD11C,2.000000*%
%TD*%
%TA.AperFunction,ComponentPad*%
%ADD12R,1.700000X1.700000*%
%TD*%
%TA.AperFunction,ComponentPad*%
%ADD13C,1.700000*%
%TD*%
%TA.AperFunction,ComponentPad*%
%ADD14R,1.600000X1.600000*%
%TD*%
%TA.AperFunction,ComponentPad*%
%ADD15C,1.600000*%
%TD*%
%TA.AperFunction,SMDPad,CuDef*%
%ADD16RoundRect,0.250000X0.450000X-0.350000X0.450000X0.350000X-0.450000X0.350000X-0.450000X-0.350000X0*%
%TD*%
%TA.AperFunction,SMDPad,CuDef*%
%ADD17RoundRect,0.250000X-0.450000X0.350000X-0.450000X-0.350000X0.450000X-0.350000X0.450000X0.350000X0*%
%TD*%
%TA.AperFunction,SMDPad,CuDef*%
%ADD18RoundRect,0.250000X-0.350000X-0.450000X0.350000X-0.450000X0.350000X0.450000X-0.350000X0.450000X0*%
%TD*%
%TA.AperFunction,SMDPad,CuDef*%
%ADD19RoundRect,0.150000X-0.587500X-0.150000X0.587500X-0.150000X0.587500X0.150000X-0.587500X0.150000X0*%
%TD*%
%TA.AperFunction,ViaPad*%
%ADD20C,0.600000*%
%TD*%
%TA.AperFunction,Conductor*%
%ADD21C,0.200000*%
%TD*%
G04 APERTURE END LIST*
D10*
%TO.P,REF\u002A\u002A,1*%
%TO.N,N/C*%
X104500000Y-93000000D03*
%TD*%
%TO.P,REF\u002A\u002A,1*%
%TO.N,N/C*%
X104500000Y-77000000D03*
%TD*%
%TO.P,REF\u002A\u002A,1*%
%TO.N,N/C*%
X179000000Y-93000000D03*
%TD*%
%TO.P,REF\u002A\u002A,1*%
%TO.N,N/C*%
X179000000Y-77000000D03*
%TD*%
D11*
%TO.P,SW6,1,1*%
%TO.N,NMI_IN*%
X108250000Y-88500000D03*
X108250000Y-82000000D03*
%TO.P,SW6,2,2*%
%TO.N,GND*%
X112750000Y-88500000D03*
X112750000Y-82000000D03*
%TD*%
D12*
%TO.P,J7,1,Pin_1*%
%TO.N,GND*%
X111750000Y-92750000D03*
D13*
%TO.P,J7,2,Pin_2*%
%TO.N,NMI_OUT*%
X109210000Y-92750000D03*
%TD*%
D11*
%TO.P,SW3,1,1*%
%TO.N,KEY_RESET*%
X175000000Y-88500000D03*
X175000000Y-82000000D03*
%TO.P,SW3,2,2*%
%TO.N,GND*%
X179500000Y-88500000D03*
X179500000Y-82000000D03*
%TD*%
%TO.P,SW1,1,1*%
%TO.N,KEY_NEXT*%
X168250000Y-81500000D03*
X161750000Y-81500000D03*
%TO.P,SW1,2,2*%
%TO.N,GND*%
X168250000Y-77000000D03*
X161750000Y-77000000D03*
%TD*%
%TO.P,SW5,1,1*%
%TO.N,KEY_128*%
X129250000Y-88500000D03*
X129250000Y-82000000D03*
%TO.P,SW5,2,2*%
%TO.N,GND*%
X133750000Y-88500000D03*
X133750000Y-82000000D03*
%TD*%
D14*
%TO.P,U1,1,E*%
%TO.N,Net-(U1-E)*%
X146880000Y-93000000D03*
D15*
%TO.P,U1,2,D*%
%TO.N,Net-(U1-D)*%
X149420000Y-93000000D03*
%TO.P,U1,3,CA*%
%TO.N,+5V*%
X151960000Y-93000000D03*
%TO.P,U1,4,C*%
%TO.N,Net-(U1-C)*%
X154500000Y-93000000D03*
%TO.P,U1,5,DP*%
%TO.N,Net-(U1-DP)*%
X157040000Y-93000000D03*
%TO.P,U1,6,B*%
%TO.N,Net-(U1-B)*%
X157040000Y-77760000D03*
%TO.P,U1,7,A*%
%TO.N,Net-(U1-A)*%
X154500000Y-77760000D03*
%TO.P,U1,8,CA*%
%TO.N,+5V*%
X151960000Y-77760000D03*
%TO.P,U1,9,F*%
%TO.N,Net-(U1-F)*%
X149420000Y-77760000D03*
%TO.P,U1,10,G*%
%TO.N,Net-(U1-G)*%
X146880000Y-77760000D03*
%TD*%
D11*
%TO.P,SW2,1,1*%
%TO.N,KEY_PREV*%
X161750000Y-89250000D03*
X168250000Y-89250000D03*
%TO.P,SW2,2,2*%
%TO.N,GND*%
X161750000Y-93750000D03*
X168250000Y-93750000D03*
%TD*%
%TO.P,SW4,1,1*%
%TO.N,Net-(J6-Pin_2)*%
X118750000Y-88500000D03*
X118750000Y-82000000D03*
%TO.P,SW4,2,2*%
%TO.N,MAGIC_ADC*%
X123250000Y-88500000D03*
X123250000Y-82000000D03*
%TD*%
D16*
%TO.P,R2,1*%
%TO.N,LED_A*%
X154500000Y-82000000D03*
%TO.P,R2,2*%
%TO.N,Net-(U1-A)*%
X154500000Y-80000000D03*
%TD*%
%TO.P,R8,1*%
%TO.N,LED_G*%
X146750000Y-82000000D03*
%TO.P,R8,2*%
%TO.N,Net-(U1-G)*%
X146750000Y-80000000D03*
%TD*%
D12*
%TO.P,J4,1,Pin_1*%
%TO.N,GND*%
X139750000Y-93290000D03*
D13*
%TO.P,J4,2,Pin_2*%
%TO.N,RESET*%
X139750000Y-90750000D03*
%TD*%
D12*
%TO.P,J3,1,Pin_1*%
%TO.N,GND*%
X143500000Y-93250000D03*
D13*
%TO.P,J3,2,Pin_2*%
%TO.N,ROM0*%
X143500000Y-90710000D03*
%TO.P,J3,3,Pin_3*%
%TO.N,ROM1*%
X143500000Y-88170000D03*
%TO.P,J3,4,Pin_4*%
%TO.N,ROM2*%
X143500000Y-85630000D03*
%TD*%
D17*
%TO.P,R9,1*%
%TO.N,LED_DP*%
X157000000Y-88500000D03*
%TO.P,R9,2*%
%TO.N,Net-(U1-DP)*%
X157000000Y-90500000D03*
%TD*%
D16*
%TO.P,R10,1*%
%TO.N,BEEPER*%
X152000000Y-90500000D03*
%TO.P,R10,2*%
%TO.N,Net-(Q1-B)*%
X152000000Y-88500000D03*
%TD*%
D12*
%TO.P,J2,1,Pin_1*%
%TO.N,GND*%
X142500000Y-78750000D03*
D13*
%TO.P,J2,2,Pin_2*%
%TO.N,Net-(D1-A)*%
X139960000Y-78750000D03*
%TD*%
D16*
%TO.P,R3,1*%
%TO.N,LED_B*%
X157000000Y-82000000D03*
%TO.P,R3,2*%
%TO.N,Net-(U1-B)*%
X157000000Y-80000000D03*
%TD*%
D12*
%TO.P,J6,1,Pin_1*%
%TO.N,MAGIC_ADC*%
X122250000Y-92750000D03*
D13*
%TO.P,J6,2,Pin_2*%
%TO.N,Net-(J6-Pin_2)*%
X119710000Y-92750000D03*
%TD*%
D16*
%TO.P,R7,1*%
%TO.N,LED_F*%
X149500000Y-82000000D03*
%TO.P,R7,2*%
%TO.N,Net-(U1-F)*%
X149500000Y-80000000D03*
%TD*%
D17*
%TO.P,R6,1*%
%TO.N,LED_E*%
X146750000Y-88500000D03*
%TO.P,R6,2*%
%TO.N,Net-(U1-E)*%
X146750000Y-90500000D03*
%TD*%
D18*
%TO.P,R11,1*%
%TO.N,Net-(Q1-C)*%
X155000000Y-85500000D03*
%TO.P,R11,2*%
%TO.N,Net-(BZ1--)*%
X157000000Y-85500000D03*
%TD*%
D14*
%TO.P,BZ1,1,+*%
%TO.N,+5V*%
X169250000Y-85500000D03*
D15*
%TO.P,BZ1,2,-*%
%TO.N,Net-(BZ1--)*%
X161650000Y-85500000D03*
%TD*%
D17*
%TO.P,R5,1*%
%TO.N,LED_D*%
X149500000Y-88500000D03*
%TO.P,R5,2*%
%TO.N,Net-(U1-D)*%
X149500000Y-90500000D03*
%TD*%
D12*
%TO.P,J5,1,Pin_1*%
%TO.N,GND*%
X132790000Y-92750000D03*
D13*
%TO.P,J5,2,Pin_2*%
%TO.N,128*%
X130250000Y-92750000D03*
%TD*%
D17*
%TO.P,R4,1*%
%TO.N,LED_C*%
X154500000Y-88500000D03*
%TO.P,R4,2*%
%TO.N,Net-(U1-C)*%
X154500000Y-90500000D03*
%TD*%
%TO.P,R1,1*%
%TO.N,+5V*%
X152000000Y-80000000D03*
%TO.P,R1,2*%
%TO.N,RST*%
X152000000Y-82000000D03*
%TD*%
D19*
%TO.P,Q1,1,B*%
%TO.N,Net-(Q1-B)*%
X151112500Y-86512500D03*
%TO.P,Q1,2,E*%
%TO.N,GND*%
X151112500Y-84612500D03*
%TO.P,Q1,3,C*%
%TO.N,Net-(Q1-C)*%
X152987500Y-85562500D03*
%TD*%
D20*
%TO.N,NMI_OUT*%
X147571399Y-75531892D03*
%TO.N,NMI_IN*%
X150309907Y-75386517D03*
%TO.N,LED_B*%
X154763492Y-83835037D03*
%TO.N,+5V*%
X172000000Y-82000000D03*
%TO.N,GND*%
X151000000Y-84500000D03*
%TO.N,RST*%
X152000000Y-83000000D03*
%TO.N,LED_A*%
X154750000Y-83000000D03*
%TO.N,LED_C*%
X154266331Y-88448925D03*
%TO.N,LED_D*%
X149452444Y-88470019D03*
%TO.N,LED_E*%
X146500000Y-83250000D03*
%TO.N,LED_F*%
X149250000Y-82750000D03*
%TO.N,LED_G*%
X146750000Y-82000000D03*
%TO.N,LED_DP*%
X156638847Y-89077500D03*
%TO.N,KEY_PREV*%
X153733017Y-83034770D03*
%TO.N,ROM1*%
X155466806Y-89600000D03*
%TO.N,BEEPER*%
X152181860Y-90682879D03*
%TO.N,128*%
X153200000Y-90671571D03*
%TO.N,KEY_128*%
X152807543Y-83012580D03*
%TD*%
D21*
%TO.N,NMI_IN*%
X150309907Y-75386517D02*
X149365142Y-74441752D01*
X149365142Y-74441752D02*
X113445494Y-74441752D01*
X113445494Y-74441752D02*
X108250000Y-79637246D01*
X108250000Y-79637246D02*
X108250000Y-82000000D01*
%TO.N,NMI_OUT*%
X147571399Y-75531892D02*
X147557459Y-75517952D01*
X114482048Y-75517952D02*
X110000000Y-80000000D01*
X147557459Y-75517952D02*
X114482048Y-75517952D01*
X110000000Y-80000000D02*
X110000000Y-91960000D01*
X110000000Y-91960000D02*
X109210000Y-92750000D01*
%TO.N,GND*%
X112750000Y-88500000D02*
X112750000Y-91750000D01*
X112750000Y-91750000D02*
X111750000Y-92750000D01*
X112750000Y-82000000D02*
X112750000Y-88500000D01*
%TO.N,NMI_IN*%
X108250000Y-82000000D02*
X108250000Y-88500000D01*
%TO.N,KEY_PREV*%
X161750000Y-89250000D02*
X163000000Y-88000000D01*
X163000000Y-84500000D02*
X162250000Y-83750000D01*
X162250000Y-83750000D02*
X155842592Y-83750000D01*
X163000000Y-88000000D02*
X163000000Y-84500000D01*
X155156555Y-84436037D02*
X154255165Y-84436037D01*
X155842592Y-83750000D02*
X155156555Y-84436037D01*
X153733017Y-83913889D02*
X153733017Y-83034770D01*
X154255165Y-84436037D02*
X153733017Y-83913889D01*
%TO.N,LED_B*%
X154840324Y-83693365D02*
X154763492Y-83770197D01*
X154763492Y-83770197D02*
X154763492Y-83835037D01*
X157000000Y-82000000D02*
X155306635Y-83693365D01*
X155306635Y-83693365D02*
X154840324Y-83693365D01*
X157000000Y-82000000D02*
X157500000Y-82500000D01*
%TO.N,GND*%
X112750000Y-82250000D02*
X112500000Y-82500000D01*
X112750000Y-82000000D02*
X112750000Y-82250000D01*
%TO.N,+5V*%
X152000000Y-77800000D02*
X151960000Y-77760000D01*
X169250000Y-84750000D02*
X172000000Y-82000000D01*
X152000000Y-80000000D02*
X152000000Y-77800000D01*
X169250000Y-85500000D02*
X169250000Y-84750000D01*
%TO.N,GND*%
X139790000Y-93250000D02*
X139750000Y-93290000D01*
X171750000Y-80500000D02*
X168250000Y-77000000D01*
X168250000Y-92250000D02*
X170500000Y-90000000D01*
X133750000Y-88500000D02*
X133750000Y-82000000D01*
X179500000Y-82000000D02*
X178000000Y-80500000D01*
X161750000Y-93750000D02*
X168250000Y-93750000D01*
X168250000Y-93750000D02*
X168250000Y-92250000D01*
X151112500Y-84612500D02*
X151000000Y-84500000D01*
X178000000Y-90000000D02*
X179500000Y-88500000D01*
X133750000Y-82000000D02*
X134000000Y-82000000D01*
X133750000Y-91790000D02*
X132790000Y-92750000D01*
X170500000Y-90000000D02*
X178000000Y-90000000D01*
X178000000Y-80500000D02*
X171750000Y-80500000D01*
X133330000Y-93290000D02*
X132790000Y-92750000D01*
X133750000Y-88500000D02*
X133750000Y-91790000D01*
X143500000Y-93250000D02*
X139790000Y-93250000D01*
X168250000Y-77000000D02*
X161750000Y-77000000D01*
X179500000Y-88500000D02*
X179500000Y-82000000D01*
X139750000Y-93290000D02*
X133330000Y-93290000D01*
%TO.N,RST*%
X152000000Y-83000000D02*
X152000000Y-82000000D01*
%TO.N,LED_A*%
X154750000Y-83000000D02*
X154750000Y-82250000D01*
X154750000Y-82250000D02*
X154500000Y-82000000D01*
%TO.N,Net-(U1-A)*%
X154500000Y-80000000D02*
X154500000Y-77760000D01*
%TO.N,Net-(U1-B)*%
X157000000Y-77800000D02*
X157040000Y-77760000D01*
X157000000Y-80000000D02*
X157000000Y-77800000D01*
%TO.N,Net-(U1-C)*%
X154500000Y-90500000D02*
X154500000Y-93000000D01*
%TO.N,Net-(U1-D)*%
X149500000Y-92920000D02*
X149420000Y-93000000D01*
X149500000Y-90500000D02*
X149500000Y-92920000D01*
%TO.N,LED_E*%
X146750000Y-83500000D02*
X146500000Y-83250000D01*
X146750000Y-88500000D02*
X146750000Y-83500000D01*
%TO.N,Net-(U1-E)*%
X146750000Y-90500000D02*
X146750000Y-92870000D01*
X146750000Y-92870000D02*
X146880000Y-93000000D01*
%TO.N,Net-(U1-F)*%
X149500000Y-77840000D02*
X149420000Y-77760000D01*
X149500000Y-80000000D02*
X149500000Y-77840000D01*
%TO.N,LED_F*%
X149250000Y-82750000D02*
X149250000Y-82250000D01*
X149250000Y-82250000D02*
X149500000Y-82000000D01*
%TO.N,Net-(U1-G)*%
X146750000Y-77890000D02*
X146880000Y-77760000D01*
X146750000Y-80000000D02*
X146750000Y-77890000D01*
%TO.N,LED_DP*%
X157000000Y-88716347D02*
X156638847Y-89077500D01*
X157000000Y-88500000D02*
X157000000Y-88716347D01*
%TO.N,Net-(U1-DP)*%
X157000000Y-90500000D02*
X157000000Y-92960000D01*
X157000000Y-92960000D02*
X157040000Y-93000000D01*
%TO.N,KEY_NEXT*%
X168250000Y-81500000D02*
X161750000Y-81500000D01*
%TO.N,KEY_PREV*%
X153750000Y-83051753D02*
X153750000Y-83250000D01*
X153733017Y-83034770D02*
X153750000Y-83051753D01*
X161750000Y-89250000D02*
X168250000Y-89250000D01*
%TO.N,KEY_RESET*%
X175000000Y-88500000D02*
X175000000Y-82000000D01*
%TO.N,ROM1*%
X144170000Y-88170000D02*
X143500000Y-88170000D01*
X155366806Y-89500000D02*
X155466806Y-89600000D01*
X145600000Y-89600000D02*
X144170000Y-88170000D01*
X155466806Y-89600000D02*
X145600000Y-89600000D01*
%TO.N,Net-(BZ1--)*%
X161650000Y-85500000D02*
X157000000Y-85500000D01*
%TO.N,Net-(Q1-B)*%
X151112500Y-86512500D02*
X151762500Y-86512500D01*
X152000000Y-86750000D02*
X152000000Y-88500000D01*
X151762500Y-86512500D02*
X152000000Y-86750000D01*
%TO.N,Net-(Q1-C)*%
X155000000Y-85500000D02*
X153050000Y-85500000D01*
X153050000Y-85500000D02*
X152987500Y-85562500D01*
%TO.N,128*%
X152750000Y-94250000D02*
X145250000Y-94250000D01*
X153200000Y-90671571D02*
X153200000Y-93800000D01*
X153200000Y-93800000D02*
X152750000Y-94250000D01*
X145059000Y-94441000D02*
X130691000Y-94441000D01*
X130691000Y-94441000D02*
X130250000Y-94000000D01*
X145250000Y-94250000D02*
X145059000Y-94441000D01*
X130250000Y-94000000D02*
X130250000Y-92750000D01*
%TO.N,KEY_128*%
X153250000Y-82570123D02*
X153250000Y-77000000D01*
X153250000Y-77000000D02*
X152909000Y-76659000D01*
X129250000Y-88500000D02*
X129250000Y-82000000D01*
X152909000Y-76659000D02*
X134591000Y-76659000D01*
X134591000Y-76659000D02*
X129250000Y-82000000D01*
X152807543Y-83012580D02*
X153250000Y-82570123D01*
%TO.N,MAGIC_ADC*%
X123250000Y-91750000D02*
X122250000Y-92750000D01*
X123250000Y-88500000D02*
X123250000Y-91750000D01*
X123250000Y-82000000D02*
X123250000Y-88500000D01*
%TO.N,Net-(J6-Pin_2)*%
X118750000Y-82000000D02*
X118750000Y-88500000D01*
X118750000Y-88500000D02*
X118750000Y-91790000D01*
X118750000Y-91790000D02*
X119710000Y-92750000D01*
%TD*%
M02*
