%TF.GenerationSoftware,KiCad,Pcbnew,9.0.6*%
%TF.CreationDate,2026-07-26T21:26:29+04:00*%
%TF.ProjectId,pentagon-rom-selector,70656e74-6167-46f6-9e2d-726f6d2d7365,rev?*%
%TF.SameCoordinates,Original*%
%TF.FileFunction,Copper,L1,Top*%
%TF.FilePolarity,Positive*%
%FSLAX46Y46*%
G04 Gerber Fmt 4.6, Leading zero omitted, Abs format (unit mm)*
G04 Created by KiCad (PCBNEW 9.0.6) date 2026-07-26 21:26:29*
%MOMM*%
%LPD*%
G01*
G04 APERTURE LIST*
G04 Aperture macros list*
%AMRoundRect*
0 Rectangle with rounded corners*
0 $1 Rounding radius*
0 $2 $3 $4 $5 $6 $7 $8 $9 X,Y pos of 4 corners*
0 Add a 4 corners polygon primitive as box body*
4,1,4,$2,$3,$4,$5,$6,$7,$8,$9,$2,$3,0*
0 Add four circle primitives for the rounded corners*
1,1,$1+$1,$2,$3*
1,1,$1+$1,$4,$5*
1,1,$1+$1,$6,$7*
1,1,$1+$1,$8,$9*
0 Add four rect primitives between the rounded corners*
20,1,$1+$1,$2,$3,$4,$5,0*
20,1,$1+$1,$4,$5,$6,$7,0*
20,1,$1+$1,$6,$7,$8,$9,0*
20,1,$1+$1,$8,$9,$2,$3,0*%
G04 Aperture macros list end*
%TA.AperFunction,ComponentPad*%
%ADD10C,4.700000*%
%TD*%
%TA.AperFunction,ComponentPad*%
%ADD11C,2.000000*%
%TD*%
%TA.AperFunction,ComponentPad*%
%ADD12R,1.700000X1.700000*%
%TD*%
%TA.AperFunction,ComponentPad*%
%ADD13C,1.700000*%
%TD*%
%TA.AperFunction,SMDPad,CuDef*%
%ADD14RoundRect,0.250000X1.000000X0.650000X-1.000000X0.650000X-1.000000X-0.650000X1.000000X-0.650000X0*%
%TD*%
%TA.AperFunction,ComponentPad*%
%ADD15R,1.600000X1.600000*%
%TD*%
%TA.AperFunction,ComponentPad*%
%ADD16C,1.600000*%
%TD*%
%TA.AperFunction,SMDPad,CuDef*%
%ADD17RoundRect,0.137500X-0.600000X-0.137500X0.600000X-0.137500X0.600000X0.137500X-0.600000X0.137500X0*%
%TD*%
%TA.AperFunction,SMDPad,CuDef*%
%ADD18RoundRect,0.137500X-0.137500X-0.600000X0.137500X-0.600000X0.137500X0.600000X-0.137500X0.600000X0*%
%TD*%
%TA.AperFunction,SMDPad,CuDef*%
%ADD19RoundRect,0.250000X0.337500X0.475000X-0.337500X0.475000X-0.337500X-0.475000X0.337500X-0.475000X0*%
%TD*%
%TA.AperFunction,ViaPad*%
%ADD20C,0.600000*%
%TD*%
%TA.AperFunction,Conductor*%
%ADD21C,0.200000*%
%TD*%
G04 APERTURE END LIST*
D10*
%TO.P,REF\u002A\u002A,1*%
%TO.N,N/C*%
X104500000Y-93000000D03*
%TD*%
%TO.P,REF\u002A\u002A,1*%
%TO.N,N/C*%
X104500000Y-77000000D03*
%TD*%
%TO.P,REF\u002A\u002A,1*%
%TO.N,N/C*%
X179000000Y-93000000D03*
%TD*%
%TO.P,REF\u002A\u002A,1*%
%TO.N,N/C*%
X179000000Y-77000000D03*
%TD*%
D11*
%TO.P,SW6,1,1*%
%TO.N,NMI_IN*%
X108250000Y-88500000D03*
X108250000Y-82000000D03*
%TO.P,SW6,2,2*%
%TO.N,GND*%
X112750000Y-88500000D03*
X112750000Y-82000000D03*
%TD*%
D12*
%TO.P,J7,1,Pin_1*%
%TO.N,GND*%
X111750000Y-92750000D03*
D13*
%TO.P,J7,2,Pin_2*%
%TO.N,NMI_OUT*%
X109210000Y-92750000D03*
%TD*%
D11*
%TO.P,SW3,1,1*%
%TO.N,KEY_RESET*%
X175000000Y-88500000D03*
X175000000Y-82000000D03*
%TO.P,SW3,2,2*%
%TO.N,GND*%
X179500000Y-88500000D03*
X179500000Y-82000000D03*
%TD*%
%TO.P,SW1,1,1*%
%TO.N,KEY_NEXT*%
X168250000Y-81500000D03*
X161750000Y-81500000D03*
%TO.P,SW1,2,2*%
%TO.N,GND*%
X168250000Y-77000000D03*
X161750000Y-77000000D03*
%TD*%
D14*
%TO.P,D1,1,K*%
%TO.N,+5V*%
X143250000Y-82500000D03*
%TO.P,D1,2,A*%
%TO.N,Net-(D1-A)*%
X139250000Y-82500000D03*
%TD*%
D11*
%TO.P,SW5,1,1*%
%TO.N,KEY_128*%
X129250000Y-88500000D03*
X129250000Y-82000000D03*
%TO.P,SW5,2,2*%
%TO.N,GND*%
X133750000Y-88500000D03*
X133750000Y-82000000D03*
%TD*%
D15*
%TO.P,U1,1,E*%
%TO.N,Net-(U1-E)*%
X146880000Y-93000000D03*
D16*
%TO.P,U1,2,D*%
%TO.N,Net-(U1-D)*%
X149420000Y-93000000D03*
%TO.P,U1,3,CA*%
%TO.N,+5V*%
X151960000Y-93000000D03*
%TO.P,U1,4,C*%
%TO.N,Net-(U1-C)*%
X154500000Y-93000000D03*
%TO.P,U1,5,DP*%
%TO.N,Net-(U1-DP)*%
X157040000Y-93000000D03*
%TO.P,U1,6,B*%
%TO.N,Net-(U1-B)*%
X157040000Y-77760000D03*
%TO.P,U1,7,A*%
%TO.N,Net-(U1-A)*%
X154500000Y-77760000D03*
%TO.P,U1,8,CA*%
%TO.N,+5V*%
X151960000Y-77760000D03*
%TO.P,U1,9,F*%
%TO.N,Net-(U1-F)*%
X149420000Y-77760000D03*
%TO.P,U1,10,G*%
%TO.N,Net-(U1-G)*%
X146880000Y-77760000D03*
%TD*%
D17*
%TO.P,U2,1,PD3*%
%TO.N,LED_E*%
X147797500Y-82702500D03*
%TO.P,U2,2,PD4*%
%TO.N,LED_F*%
X147797500Y-83502500D03*
%TO.P,U2,3,GND*%
%TO.N,GND*%
X147797500Y-84302500D03*
%TO.P,U2,4,VCC*%
%TO.N,+5V*%
X147797500Y-85102500D03*
%TO.P,U2,5,GND*%
%TO.N,GND*%
X147797500Y-85902500D03*
%TO.P,U2,6,VCC*%
%TO.N,+5V*%
X147797500Y-86702500D03*
%TO.P,U2,7,PB6/XTAL1*%
%TO.N,unconnected-(U2-PB6{slash}XTAL1-Pad7)*%
X147797500Y-87502500D03*
%TO.P,U2,8,PB7/XTAL2*%
%TO.N,unconnected-(U2-PB7{slash}XTAL2-Pad8)*%
X147797500Y-88302500D03*
D18*
%TO.P,U2,9,PD5*%
%TO.N,LED_D*%
X149160000Y-89665000D03*
%TO.P,U2,10,PD6*%
%TO.N,LED_DP*%
X149960000Y-89665000D03*
%TO.P,U2,11,PD7*%
%TO.N,LED_C*%
X150760000Y-89665000D03*
%TO.P,U2,12,PB0*%
%TO.N,RESET*%
X151560000Y-89665000D03*
%TO.P,U2,13,PB1*%
%TO.N,BEEPER*%
X152360000Y-89665000D03*
%TO.P,U2,14,PB2*%
%TO.N,128*%
X153160000Y-89665000D03*
%TO.P,U2,15,PB3*%
%TO.N,ROM0*%
X153960000Y-89665000D03*
%TO.P,U2,16,PB4*%
%TO.N,ROM1*%
X154760000Y-89665000D03*
D17*
%TO.P,U2,17,PB5*%
%TO.N,ROM2*%
X156122500Y-88302500D03*
%TO.P,U2,18,AVCC*%
%TO.N,+5V*%
X156122500Y-87502500D03*
%TO.P,U2,19,ADC6*%
%TO.N,unconnected-(U2-ADC6-Pad19)*%
X156122500Y-86702500D03*
%TO.P,U2,20,AREF*%
%TO.N,unconnected-(U2-AREF-Pad20)*%
X156122500Y-85902500D03*
%TO.P,U2,21,AGND*%
%TO.N,GND*%
X156122500Y-85102500D03*
%TO.P,U2,22,ADC7*%
%TO.N,MAGIC_ADC*%
X156122500Y-84302500D03*
%TO.P,U2,23,PC0*%
%TO.N,KEY_RESET*%
X156122500Y-83502500D03*
%TO.P,U2,24,PC1*%
%TO.N,KEY_NEXT*%
X156122500Y-82702500D03*
D18*
%TO.P,U2,25,PC2*%
%TO.N,KEY_PREV*%
X154760000Y-81340000D03*
%TO.P,U2,26,PC3*%
%TO.N,NMI_IN*%
X153960000Y-81340000D03*
%TO.P,U2,27,PC4*%
%TO.N,NMI_OUT*%
X153160000Y-81340000D03*
%TO.P,U2,28,PC5*%
%TO.N,KEY_128*%
X152360000Y-81340000D03*
%TO.P,U2,29,PC6/~{RESET}*%
%TO.N,RST*%
X151560000Y-81340000D03*
%TO.P,U2,30,PD0*%
%TO.N,LED_A*%
X150760000Y-81340000D03*
%TO.P,U2,31,PD1*%
%TO.N,LED_B*%
X149960000Y-81340000D03*
%TO.P,U2,32,PD2*%
%TO.N,LED_G*%
X149160000Y-81340000D03*
%TD*%
D11*
%TO.P,SW2,1,1*%
%TO.N,KEY_PREV*%
X161750000Y-89250000D03*
X168250000Y-89250000D03*
%TO.P,SW2,2,2*%
%TO.N,GND*%
X161750000Y-93750000D03*
X168250000Y-93750000D03*
%TD*%
%TO.P,SW4,1,1*%
%TO.N,Net-(J6-Pin_2)*%
X118750000Y-88500000D03*
X118750000Y-82000000D03*
%TO.P,SW4,2,2*%
%TO.N,MAGIC_ADC*%
X123250000Y-88500000D03*
X123250000Y-82000000D03*
%TD*%
D19*
%TO.P,C1,1*%
%TO.N,+5V*%
X142250000Y-76250000D03*
%TO.P,C1,2*%
%TO.N,GND*%
X140175000Y-76250000D03*
%TD*%
D12*
%TO.P,J4,1,Pin_1*%
%TO.N,GND*%
X139750000Y-93290000D03*
D13*
%TO.P,J4,2,Pin_2*%
%TO.N,RESET*%
X139750000Y-90750000D03*
%TD*%
D12*
%TO.P,J3,1,Pin_1*%
%TO.N,GND*%
X143500000Y-93250000D03*
D13*
%TO.P,J3,2,Pin_2*%
%TO.N,ROM0*%
X143500000Y-90710000D03*
%TO.P,J3,3,Pin_3*%
%TO.N,ROM1*%
X143500000Y-88170000D03*
%TO.P,J3,4,Pin_4*%
%TO.N,ROM2*%
X143500000Y-85630000D03*
%TD*%
D12*
%TO.P,J2,1,Pin_1*%
%TO.N,GND*%
X142500000Y-78750000D03*
D13*
%TO.P,J2,2,Pin_2*%
%TO.N,Net-(D1-A)*%
X139960000Y-78750000D03*
%TD*%
D12*
%TO.P,J6,1,Pin_1*%
%TO.N,MAGIC_ADC*%
X122250000Y-92750000D03*
D13*
%TO.P,J6,2,Pin_2*%
%TO.N,Net-(J6-Pin_2)*%
X119710000Y-92750000D03*
%TD*%
D15*
%TO.P,BZ1,1,+*%
%TO.N,+5V*%
X169250000Y-85500000D03*
D16*
%TO.P,BZ1,2,-*%
%TO.N,Net-(BZ1--)*%
X161650000Y-85500000D03*
%TD*%
D12*
%TO.P,J5,1,Pin_1*%
%TO.N,GND*%
X132790000Y-92750000D03*
D13*
%TO.P,J5,2,Pin_2*%
%TO.N,128*%
X130250000Y-92750000D03*
%TD*%
D20*
%TO.N,NMI_OUT*%
X147571399Y-75531892D03*
%TO.N,NMI_IN*%
X150309907Y-75386517D03*
%TO.N,LED_B*%
X154763492Y-83835037D03*
%TO.N,+5V*%
X172000000Y-82000000D03*
%TO.N,GND*%
X151000000Y-84500000D03*
%TO.N,RST*%
X152000000Y-83000000D03*
%TO.N,LED_A*%
X154750000Y-83000000D03*
%TO.N,LED_C*%
X154266331Y-88448925D03*
%TO.N,LED_D*%
X149452444Y-88470019D03*
%TO.N,LED_E*%
X146500000Y-83250000D03*
%TO.N,LED_F*%
X149250000Y-82750000D03*
%TO.N,LED_G*%
X146750000Y-82000000D03*
%TO.N,LED_DP*%
X156638847Y-89077500D03*
%TO.N,KEY_PREV*%
X153733017Y-83034770D03*
%TO.N,ROM1*%
X155466806Y-89600000D03*
%TO.N,BEEPER*%
X152181860Y-90682879D03*
%TO.N,128*%
X153200000Y-90671571D03*
%TO.N,KEY_128*%
X152807543Y-83012580D03*
%TD*%
D21*
%TO.N,GND*%
X111750000Y-92750000D02*
X114000000Y-95000000D01*
X114000000Y-95000000D02*
X130540000Y-95000000D01*
X130540000Y-95000000D02*
X132790000Y-92750000D01*
%TO.N,NMI_OUT*%
X153160000Y-81340000D02*
X153160000Y-80220839D01*
X153160000Y-80220839D02*
X152957949Y-80018788D01*
X148141099Y-79042400D02*
X148141099Y-76101592D01*
X152957949Y-80018788D02*
X149117487Y-80018788D01*
X149117487Y-80018788D02*
X148141099Y-79042400D01*
X148141099Y-76101592D02*
X147571399Y-75531892D01*
%TO.N,NMI_IN*%
X153960000Y-81340000D02*
X153991490Y-81308510D01*
X153991490Y-81308510D02*
X153991490Y-79598596D01*
X150712255Y-78272138D02*
X150712255Y-75788865D01*
X151623551Y-79183434D02*
X150712255Y-78272138D01*
X153991490Y-79598596D02*
X153576328Y-79183434D01*
X153576328Y-79183434D02*
X151623551Y-79183434D01*
X150712255Y-75788865D02*
X150309907Y-75386517D01*
%TO.N,LED_B*%
X154731072Y-83802617D02*
X154305676Y-84228013D01*
X154305676Y-84228013D02*
X151728013Y-84228013D01*
X149960000Y-82460000D02*
X149960000Y-81340000D01*
X151728013Y-84228013D02*
X149960000Y-82460000D01*
%TO.N,GND*%
X150750000Y-84302500D02*
X150841338Y-84302500D01*
X150841338Y-84302500D02*
X151641338Y-85102500D01*
X151641338Y-85102500D02*
X156122500Y-85102500D01*
%TO.N,LED_A*%
X150760000Y-81340000D02*
X150760000Y-82609943D01*
X151785827Y-83635770D02*
X154114230Y-83635770D01*
X150760000Y-82609943D02*
X151785827Y-83635770D01*
X154114230Y-83635770D02*
X154750000Y-83000000D01*
%TO.N,+5V*%
X155385001Y-87502500D02*
X156122500Y-87502500D01*
X161000000Y-79500000D02*
X167500000Y-79500000D01*
X158141000Y-88641000D02*
X157002500Y-87502500D01*
X144000000Y-81750000D02*
X143250000Y-82500000D01*
X153061000Y-94101000D02*
X157899000Y-94101000D01*
X147797500Y-85102500D02*
X146602500Y-85102500D01*
X154941250Y-87058750D02*
X155385001Y-87502500D01*
X154882501Y-87000000D02*
X154941250Y-87058750D01*
X146602500Y-85102500D02*
X144000000Y-82500000D01*
X151960000Y-93000000D02*
X153061000Y-94101000D01*
X147797500Y-86702500D02*
X146702500Y-86702500D01*
X158000000Y-76500000D02*
X160000000Y-78500000D01*
X153220000Y-76500000D02*
X156000000Y-76500000D01*
X169500000Y-79500000D02*
X172000000Y-82000000D01*
X160551000Y-95051000D02*
X163949000Y-95051000D01*
X158000000Y-94101000D02*
X158500000Y-94101000D01*
X160000000Y-78500000D02*
X161000000Y-79500000D01*
X157899000Y-94101000D02*
X158000000Y-94101000D01*
X164500000Y-87500000D02*
X166500000Y-85500000D01*
X164500000Y-94500000D02*
X164500000Y-87500000D01*
X159601000Y-94101000D02*
X160551000Y-95051000D01*
X146702500Y-86702500D02*
X146500000Y-86500000D01*
X158282000Y-94101000D02*
X158141000Y-93960000D01*
X163949000Y-95051000D02*
X164500000Y-94500000D01*
X166500000Y-85500000D02*
X169250000Y-85500000D01*
X158500000Y-94101000D02*
X159601000Y-94101000D01*
X167500000Y-79500000D02*
X169500000Y-79500000D01*
X157002500Y-87502500D02*
X156122500Y-87502500D01*
X156000000Y-76500000D02*
X158000000Y-76500000D01*
X144000000Y-78000000D02*
X144000000Y-81750000D01*
X144000000Y-82500000D02*
X143250000Y-82500000D01*
X147797500Y-86702500D02*
X154585000Y-86702500D01*
X158000000Y-94101000D02*
X158141000Y-93960000D01*
X154585000Y-86702500D02*
X154941250Y-87058750D01*
X158500000Y-94101000D02*
X158282000Y-94101000D01*
X151960000Y-77760000D02*
X153220000Y-76500000D01*
X158141000Y-93960000D02*
X158141000Y-88641000D01*
X142250000Y-76250000D02*
X144000000Y-78000000D01*
X146500000Y-85205000D02*
X146602500Y-85102500D01*
X146500000Y-86500000D02*
X146500000Y-85205000D01*
%TO.N,GND*%
X145000000Y-82932900D02*
X145000000Y-76000000D01*
X141425000Y-75000000D02*
X140175000Y-76250000D01*
X148534999Y-85902500D02*
X149000000Y-85437499D01*
X147797500Y-84302500D02*
X146369600Y-84302500D01*
X159000000Y-90000000D02*
X159000000Y-91000000D01*
X149000000Y-84302500D02*
X150750000Y-84302500D01*
X140175000Y-76250000D02*
X139500000Y-76250000D01*
X150750000Y-84302500D02*
X150802500Y-84302500D01*
X144000000Y-75000000D02*
X141425000Y-75000000D01*
X149000000Y-85437499D02*
X149000000Y-84302500D01*
X157102500Y-85102500D02*
X158500000Y-86500000D01*
X158500000Y-86500000D02*
X159000000Y-87000000D01*
X142500000Y-78750000D02*
X142500000Y-78575000D01*
X139500000Y-76250000D02*
X133750000Y-82000000D01*
X142500000Y-78575000D02*
X140175000Y-76250000D01*
X147797500Y-85902500D02*
X148534999Y-85902500D01*
X147797500Y-84302500D02*
X149000000Y-84302500D01*
X145000000Y-76000000D02*
X144000000Y-75000000D01*
X146369600Y-84302500D02*
X145000000Y-82932900D01*
X159000000Y-87000000D02*
X159000000Y-90000000D01*
X150802500Y-84302500D02*
X151000000Y-84500000D01*
X159000000Y-91000000D02*
X161750000Y-93750000D01*
X156122500Y-85102500D02*
X157102500Y-85102500D01*
%TO.N,Net-(D1-A)*%
X140175000Y-78325000D02*
X139750000Y-78750000D01*
X139250000Y-79460000D02*
X139960000Y-78750000D01*
X139250000Y-82500000D02*
X139250000Y-79460000D01*
%TO.N,RST*%
X151560000Y-81340000D02*
X151560000Y-82560000D01*
X151560000Y-82560000D02*
X152000000Y-83000000D01*
%TO.N,LED_A*%
X154750000Y-82711444D02*
X154750000Y-83000000D01*
%TO.N,LED_C*%
X154215256Y-88500000D02*
X154266331Y-88448925D01*
X151187501Y-88500000D02*
X154215256Y-88500000D01*
X150760000Y-88927501D02*
X151187501Y-88500000D01*
X150760000Y-89665000D02*
X150760000Y-88927501D01*
%TO.N,LED_D*%
X149160000Y-88762463D02*
X149452444Y-88470019D01*
X149160000Y-89665000D02*
X149160000Y-88762463D01*
%TO.N,LED_E*%
X147047500Y-82702500D02*
X147797500Y-82702500D01*
X146500000Y-83250000D02*
X147047500Y-82702500D01*
%TO.N,LED_F*%
X148497500Y-83502500D02*
X149250000Y-82750000D01*
X147797500Y-83502500D02*
X148497500Y-83502500D01*
%TO.N,LED_G*%
X149160000Y-81840000D02*
X149000000Y-82000000D01*
X149000000Y-82000000D02*
X146750000Y-82000000D01*
X149160000Y-81340000D02*
X149160000Y-81840000D01*
%TO.N,LED_DP*%
X149960000Y-88790000D02*
X149960000Y-89665000D01*
X154506844Y-87839495D02*
X150910505Y-87839495D01*
X155000000Y-88541444D02*
X155000000Y-88332651D01*
X156638847Y-89077500D02*
X155827500Y-89077500D01*
X155827500Y-89077500D02*
X155750000Y-89000000D01*
X150910505Y-87839495D02*
X149960000Y-88790000D01*
X155000000Y-88332651D02*
X154506844Y-87839495D01*
X155458556Y-89000000D02*
X155000000Y-88541444D01*
X155750000Y-89000000D02*
X155458556Y-89000000D01*
%TO.N,KEY_NEXT*%
X156122500Y-82702500D02*
X160547500Y-82702500D01*
X160547500Y-82702500D02*
X161750000Y-81500000D01*
%TO.N,KEY_PREV*%
X153733017Y-83034770D02*
X154760000Y-82007787D01*
X154760000Y-82007787D02*
X154760000Y-81340000D01*
%TO.N,KEY_RESET*%
X156122500Y-83502500D02*
X173247500Y-83502500D01*
X173247500Y-83502500D02*
X174750000Y-82000000D01*
%TO.N,ROM0*%
X153437221Y-91282878D02*
X144072878Y-91282878D01*
X153437221Y-91282878D02*
X153467122Y-91282878D01*
X144073879Y-91283879D02*
X143500000Y-90710000D01*
X153467122Y-91282878D02*
X153466121Y-91283879D01*
X153960000Y-89665000D02*
X153960000Y-90760099D01*
X144072878Y-91282878D02*
X143500000Y-90710000D01*
X153960000Y-90760099D02*
X153437221Y-91282878D01*
%TO.N,ROM1*%
X154825000Y-89600000D02*
X154760000Y-89665000D01*
X155466806Y-89600000D02*
X154825000Y-89600000D01*
%TO.N,ROM2*%
X145389000Y-91861000D02*
X142611000Y-91861000D01*
X142250000Y-86880000D02*
X143500000Y-85630000D01*
X157250000Y-88838710D02*
X157250000Y-90000000D01*
X157250000Y-90000000D02*
X155500000Y-91750000D01*
X156713790Y-88302500D02*
X157250000Y-88838710D01*
X142611000Y-91861000D02*
X142250000Y-91500000D01*
X156122500Y-88302500D02*
X156713790Y-88302500D01*
X145500000Y-91750000D02*
X145389000Y-91861000D01*
X155500000Y-91750000D02*
X145500000Y-91750000D01*
X142250000Y-91500000D02*
X142250000Y-86880000D01*
%TO.N,RESET*%
X148500000Y-90750000D02*
X151250000Y-90750000D01*
X142521000Y-84479000D02*
X144479000Y-84479000D01*
X141750000Y-85250000D02*
X142521000Y-84479000D01*
X145000000Y-85000000D02*
X145000000Y-87250000D01*
X141750000Y-88750000D02*
X141750000Y-85250000D01*
X151560000Y-90440000D02*
X151560000Y-89665000D01*
X151250000Y-90750000D02*
X151560000Y-90440000D01*
X139750000Y-90750000D02*
X141750000Y-88750000D01*
X144479000Y-84479000D02*
X145000000Y-85000000D01*
X145000000Y-87250000D02*
X148500000Y-90750000D01*
%TO.N,BEEPER*%
X152250000Y-90500000D02*
X152250000Y-90614739D01*
X152360000Y-90390000D02*
X152250000Y-90500000D01*
X152360000Y-89665000D02*
X152360000Y-90390000D01*
X152250000Y-90614739D02*
X152181860Y-90682879D01*
%TO.N,128*%
X153160000Y-89665000D02*
X153160000Y-90631571D01*
X153160000Y-90631571D02*
X153200000Y-90671571D01*
%TO.N,KEY_128*%
X152807543Y-82957600D02*
X152807543Y-83012580D01*
X152360000Y-81340000D02*
X152360000Y-82510057D01*
X152360000Y-82510057D02*
X152807543Y-82957600D01*
%TO.N,MAGIC_ADC*%
X169750000Y-74500000D02*
X176301000Y-81051000D01*
X130750000Y-74500000D02*
X169750000Y-74500000D01*
X174947500Y-84302500D02*
X156122500Y-84302500D01*
X176301000Y-81051000D02*
X176301000Y-82949000D01*
X123250000Y-82000000D02*
X130750000Y-74500000D01*
X176301000Y-82949000D02*
X174947500Y-84302500D01*
%TD*%
M02*
