M48
; DRILL file {KiCad 9.0.6} date 2026-08-04T12:58:20+0400
; FORMAT={-:-/ absolute / metric / decimal}
; #@! TF.CreationDate,2026-08-04T12:58:20+04:00
; #@! TF.GenerationSoftware,Kicad,Pcbnew,9.0.6
; #@! TF.FileFunction,Plated,1,2,PTH
FMAT,2
METRIC
; #@! TA.AperFunction,Plated,PTH,ViaDrill
T1C0.300
; #@! TA.AperFunction,Plated,PTH,ComponentDrill
T2C0.800
; #@! TA.AperFunction,Plated,PTH,ComponentDrill
T3C1.000
; #@! TA.AperFunction,Plated,PTH,ComponentDrill
T4C1.100
; #@! TA.AperFunction,Plated,PTH,ComponentDrill
T5C2.700
%
G90
G05
T1
X146.5Y-83.25
X146.75Y-82.0
X147.571Y-75.532
X149.25Y-82.75
X149.452Y-88.47
X150.31Y-75.387
X151.0Y-84.5
X152.0Y-83.0
X152.182Y-90.683
X152.808Y-83.013
X153.2Y-90.672
X153.733Y-83.035
X154.266Y-88.449
X154.75Y-83.0
X154.763Y-83.835
X155.467Y-89.6
X156.639Y-89.078
X172.0Y-82.0
T2
X146.88Y-77.76
X146.88Y-93.0
X149.42Y-77.76
X149.42Y-93.0
X151.96Y-77.76
X151.96Y-93.0
X154.5Y-77.76
X154.5Y-93.0
X157.04Y-77.76
X157.04Y-93.0
T3
X109.21Y-92.75
X111.75Y-92.75
X119.71Y-92.75
X122.25Y-92.75
X130.25Y-92.75
X132.79Y-92.75
X139.75Y-90.75
X139.75Y-93.29
X139.96Y-78.75
X142.5Y-78.75
X143.5Y-85.63
X143.5Y-88.17
X143.5Y-90.71
X143.5Y-93.25
X161.65Y-85.5
X169.25Y-85.5
T4
X108.25Y-82.0
X108.25Y-88.5
X112.75Y-82.0
X112.75Y-88.5
X118.75Y-82.0
X118.75Y-88.5
X123.25Y-82.0
X123.25Y-88.5
X129.25Y-82.0
X129.25Y-88.5
X133.75Y-82.0
X133.75Y-88.5
X161.75Y-77.0
X161.75Y-81.5
X161.75Y-89.25
X161.75Y-93.75
X168.25Y-77.0
X168.25Y-81.5
X168.25Y-89.25
X168.25Y-93.75
X175.0Y-82.0
X175.0Y-88.5
X179.5Y-82.0
X179.5Y-88.5
T5
X104.5Y-77.0
X104.5Y-93.0
X179.0Y-77.0
X179.0Y-93.0
M30
