%TF.GenerationSoftware,KiCad,Pcbnew,9.0.6*%
%TF.CreationDate,2026-07-26T21:26:29+04:00*%
%TF.ProjectId,pentagon-rom-selector,70656e74-6167-46f6-9e2d-726f6d2d7365,rev?*%
%TF.SameCoordinates,Original*%
%TF.FileFunction,Soldermask,Bot*%
%TF.FilePolarity,Negative*%
%FSLAX46Y46*%
G04 Gerber Fmt 4.6, Leading zero omitted, Abs format (unit mm)*
G04 Created by KiCad (PCBNEW 9.0.6) date 2026-07-26 21:26:29*
%MOMM*%
%LPD*%
G01*
G04 APERTURE LIST*
G04 Aperture macros list*
%AMRoundRect*
0 Rectangle with rounded corners*
0 $1 Rounding radius*
0 $2 $3 $4 $5 $6 $7 $8 $9 X,Y pos of 4 corners*
0 Add a 4 corners polygon primitive as box body*
4,1,4,$2,$3,$4,$5,$6,$7,$8,$9,$2,$3,0*
0 Add four circle primitives for the rounded corners*
1,1,$1+$1,$2,$3*
1,1,$1+$1,$4,$5*
1,1,$1+$1,$6,$7*
1,1,$1+$1,$8,$9*
0 Add four rect primitives between the rounded corners*
20,1,$1+$1,$2,$3,$4,$5,0*
20,1,$1+$1,$4,$5,$6,$7,0*
20,1,$1+$1,$6,$7,$8,$9,0*
20,1,$1+$1,$8,$9,$2,$3,0*%
G04 Aperture macros list end*
%ADD10C,4.700000*%
%ADD11C,2.000000*%
%ADD12R,1.700000X1.700000*%
%ADD13C,1.700000*%
%ADD14R,1.600000X1.600000*%
%ADD15C,1.600000*%
%ADD16RoundRect,0.250000X0.450000X-0.350000X0.450000X0.350000X-0.450000X0.350000X-0.450000X-0.350000X0*%
%ADD17RoundRect,0.250000X-0.450000X0.350000X-0.450000X-0.350000X0.450000X-0.350000X0.450000X0.350000X0*%
%ADD18RoundRect,0.250000X-0.350000X-0.450000X0.350000X-0.450000X0.350000X0.450000X-0.350000X0.450000X0*%
%ADD19RoundRect,0.150000X-0.587500X-0.150000X0.587500X-0.150000X0.587500X0.150000X-0.587500X0.150000X0*%
G04 APERTURE END LIST*
D10*
%TO.C,REF\u002A\u002A*%
X104500000Y-93000000D03*
%TD*%
%TO.C,REF\u002A\u002A*%
X104500000Y-77000000D03*
%TD*%
%TO.C,REF\u002A\u002A*%
X179000000Y-93000000D03*
%TD*%
%TO.C,REF\u002A\u002A*%
X179000000Y-77000000D03*
%TD*%
D11*
%TO.C,SW6*%
X108250000Y-88500000D03*
X108250000Y-82000000D03*
X112750000Y-88500000D03*
X112750000Y-82000000D03*
%TD*%
D12*
%TO.C,J7*%
X111750000Y-92750000D03*
D13*
X109210000Y-92750000D03*
%TD*%
D11*
%TO.C,SW3*%
X175000000Y-88500000D03*
X175000000Y-82000000D03*
X179500000Y-88500000D03*
X179500000Y-82000000D03*
%TD*%
%TO.C,SW1*%
X168250000Y-81500000D03*
X161750000Y-81500000D03*
X168250000Y-77000000D03*
X161750000Y-77000000D03*
%TD*%
%TO.C,SW5*%
X129250000Y-88500000D03*
X129250000Y-82000000D03*
X133750000Y-88500000D03*
X133750000Y-82000000D03*
%TD*%
D14*
%TO.C,U1*%
X146880000Y-93000000D03*
D15*
X149420000Y-93000000D03*
X151960000Y-93000000D03*
X154500000Y-93000000D03*
X157040000Y-93000000D03*
X157040000Y-77760000D03*
X154500000Y-77760000D03*
X151960000Y-77760000D03*
X149420000Y-77760000D03*
X146880000Y-77760000D03*
%TD*%
D11*
%TO.C,SW2*%
X161750000Y-89250000D03*
X168250000Y-89250000D03*
X161750000Y-93750000D03*
X168250000Y-93750000D03*
%TD*%
%TO.C,SW4*%
X118750000Y-88500000D03*
X118750000Y-82000000D03*
X123250000Y-88500000D03*
X123250000Y-82000000D03*
%TD*%
D16*
%TO.C,R2*%
X154500000Y-82000000D03*
X154500000Y-80000000D03*
%TD*%
%TO.C,R8*%
X146750000Y-82000000D03*
X146750000Y-80000000D03*
%TD*%
D12*
%TO.C,J4*%
X139750000Y-93290000D03*
D13*
X139750000Y-90750000D03*
%TD*%
D12*
%TO.C,J3*%
X143500000Y-93250000D03*
D13*
X143500000Y-90710000D03*
X143500000Y-88170000D03*
X143500000Y-85630000D03*
%TD*%
D17*
%TO.C,R9*%
X157000000Y-88500000D03*
X157000000Y-90500000D03*
%TD*%
D16*
%TO.C,R10*%
X152000000Y-90500000D03*
X152000000Y-88500000D03*
%TD*%
D12*
%TO.C,J2*%
X142500000Y-78750000D03*
D13*
X139960000Y-78750000D03*
%TD*%
D16*
%TO.C,R3*%
X157000000Y-82000000D03*
X157000000Y-80000000D03*
%TD*%
D12*
%TO.C,J6*%
X122250000Y-92750000D03*
D13*
X119710000Y-92750000D03*
%TD*%
D16*
%TO.C,R7*%
X149500000Y-82000000D03*
X149500000Y-80000000D03*
%TD*%
D17*
%TO.C,R6*%
X146750000Y-88500000D03*
X146750000Y-90500000D03*
%TD*%
D18*
%TO.C,R11*%
X155000000Y-85500000D03*
X157000000Y-85500000D03*
%TD*%
D14*
%TO.C,BZ1*%
X169250000Y-85500000D03*
D15*
X161650000Y-85500000D03*
%TD*%
D17*
%TO.C,R5*%
X149500000Y-88500000D03*
X149500000Y-90500000D03*
%TD*%
D12*
%TO.C,J5*%
X132790000Y-92750000D03*
D13*
X130250000Y-92750000D03*
%TD*%
D17*
%TO.C,R4*%
X154500000Y-88500000D03*
X154500000Y-90500000D03*
%TD*%
%TO.C,R1*%
X152000000Y-80000000D03*
X152000000Y-82000000D03*
%TD*%
D19*
%TO.C,Q1*%
X151112500Y-86512500D03*
X151112500Y-84612500D03*
X152987500Y-85562500D03*
%TD*%
M02*
