G04 This is an RS-274x file exported by *
G04 gerbv version 2.10.0 *
G04 More information is available about gerbv at *
G04 https://gerbv.github.io/ *
G04 --End of header info--*
%MOIN*%
%FSLAX36Y36*%
%IPPOS*%
G04 --Define apertures--*
%ADD10C,0.0787*%
%ADD11R,0.0669X0.0669*%
%ADD12C,0.0669*%
%AMMACRO13*
4,1,4,0.013287,0.018701,-0.013287,0.018701,-0.013287,-0.018701,0.013287,-0.018701,0.013287,0.018701,0.000000*
1,1,0.019685,0.013287,0.018701*
1,1,0.019685,-0.013287,0.018701*
1,1,0.019685,-0.013287,-0.018701*
1,1,0.019685,0.013287,-0.018701*
20,1,0.019685,0.013287,0.018701,-0.013287,0.018701,0.000000*
20,1,0.019685,-0.013287,0.018701,-0.013287,-0.018701,0.000000*
20,1,0.019685,-0.013287,-0.018701,0.013287,-0.018701,0.000000*
20,1,0.019685,0.013287,-0.018701,0.013287,0.018701,0.000000*
%
%ADD13MACRO13*%
%ADD14C,0.0630*%
%ADD15R,0.0630X0.0630*%
%AMMACRO16*
4,1,4,-0.005413,-0.023622,0.005413,-0.023622,0.005413,0.023622,-0.005413,0.023622,-0.005413,-0.023622,0.000000*
1,1,0.010827,-0.005413,-0.023622*
1,1,0.010827,0.005413,-0.023622*
1,1,0.010827,0.005413,0.023622*
1,1,0.010827,-0.005413,0.023622*
20,1,0.010827,-0.005413,-0.023622,0.005413,-0.023622,0.000000*
20,1,0.010827,0.005413,-0.023622,0.005413,0.023622,0.000000*
20,1,0.010827,0.005413,0.023622,-0.005413,0.023622,0.000000*
20,1,0.010827,-0.005413,0.023622,-0.005413,-0.023622,0.000000*
%
%ADD16MACRO16*%
%AMMACRO17*
4,1,4,-0.023622,-0.005413,0.023622,-0.005413,0.023622,0.005413,-0.023622,0.005413,-0.023622,-0.005413,0.000000*
1,1,0.010827,-0.023622,-0.005413*
1,1,0.010827,0.023622,-0.005413*
1,1,0.010827,0.023622,0.005413*
1,1,0.010827,-0.023622,0.005413*
20,1,0.010827,-0.023622,-0.005413,0.023622,-0.005413,0.000000*
20,1,0.010827,0.023622,-0.005413,0.023622,0.005413,0.000000*
20,1,0.010827,0.023622,0.005413,-0.023622,0.005413,0.000000*
20,1,0.010827,-0.023622,0.005413,-0.023622,-0.005413,0.000000*
%
%ADD17MACRO17*%
%AMMACRO18*
4,1,4,0.023622,-0.023622,0.023622,0.023622,-0.023622,0.023622,-0.023622,-0.023622,0.023622,-0.023622,0.000000*
1,1,0.019685,0.023622,-0.023622*
1,1,0.019685,0.023622,0.023622*
1,1,0.019685,-0.023622,0.023622*
1,1,0.019685,-0.023622,-0.023622*
20,1,0.019685,0.023622,-0.023622,0.023622,0.023622,0.000000*
20,1,0.019685,0.023622,0.023622,-0.023622,0.023622,0.000000*
20,1,0.019685,-0.023622,0.023622,-0.023622,-0.023622,0.000000*
20,1,0.019685,-0.023622,-0.023622,0.023622,-0.023622,0.000000*
%
%ADD18MACRO18*%
%AMMACRO19*
4,1,4,0.039370,0.025591,-0.039370,0.025591,-0.039370,-0.025591,0.039370,-0.025591,0.039370,0.025591,0.000000*
1,1,0.019685,0.039370,0.025591*
1,1,0.019685,-0.039370,0.025591*
1,1,0.019685,-0.039370,-0.025591*
1,1,0.019685,0.039370,-0.025591*
20,1,0.019685,0.039370,0.025591,-0.039370,0.025591,0.000000*
20,1,0.019685,-0.039370,0.025591,-0.039370,-0.025591,0.000000*
20,1,0.019685,-0.039370,-0.025591,0.039370,-0.025591,0.000000*
20,1,0.019685,0.039370,-0.025591,0.039370,0.025591,0.000000*
%
%ADD19MACRO19*%
%ADD20C,0.1575*%
G04 --Start main section--*
G54D10*
G01X5088583Y-3484252D03*
G01X5088583Y-3228346D03*
G01X5265748Y-3484252D03*
G01X5265748Y-3228346D03*
G01X4675197Y-3484252D03*
G01X4675197Y-3228346D03*
G01X4852362Y-3484252D03*
G01X4852362Y-3228346D03*
G54D11*
G01X4812992Y-3651575D03*
G54D12*
G01X4712992Y-3651575D03*
G54D11*
G01X5227953Y-3651575D03*
G54D12*
G01X5127953Y-3651575D03*
G54D13*
G01X5518701Y-3001969D03*
G01X5600394Y-3001969D03*
G54D14*
G01X6364173Y-3366142D03*
G54D15*
G01X6663386Y-3366142D03*
G54D10*
G01X6889764Y-3484252D03*
G01X6889764Y-3228346D03*
G01X7066929Y-3484252D03*
G01X7066929Y-3228346D03*
G01X6368110Y-3513780D03*
G01X6624016Y-3513780D03*
G01X6368110Y-3690945D03*
G01X6624016Y-3690945D03*
G01X6624016Y-3208661D03*
G01X6368110Y-3208661D03*
G01X6624016Y-3031496D03*
G01X6368110Y-3031496D03*
G54D14*
G01X5782677Y-3061417D03*
G01X5882677Y-3061417D03*
G01X5982677Y-3061417D03*
G01X6082677Y-3061417D03*
G01X6182677Y-3061417D03*
G01X6182677Y-3661417D03*
G01X6082677Y-3661417D03*
G01X5982677Y-3661417D03*
G01X5882677Y-3661417D03*
G54D15*
G01X5782677Y-3661417D03*
G54D16*
G01X5872441Y-3202362D03*
G01X5903937Y-3202362D03*
G01X5935433Y-3202362D03*
G01X5966929Y-3202362D03*
G01X5998425Y-3202362D03*
G01X6029921Y-3202362D03*
G01X6061417Y-3202362D03*
G01X6092913Y-3202362D03*
G54D17*
G01X6146555Y-3256004D03*
G01X6146555Y-3287500D03*
G01X6146555Y-3318996D03*
G01X6146555Y-3350492D03*
G01X6146555Y-3381988D03*
G01X6146555Y-3413484D03*
G01X6146555Y-3444980D03*
G01X6146555Y-3476476D03*
G54D16*
G01X6092913Y-3530118D03*
G01X6061417Y-3530118D03*
G01X6029921Y-3530118D03*
G01X5998425Y-3530118D03*
G01X5966929Y-3530118D03*
G01X5935433Y-3530118D03*
G01X5903937Y-3530118D03*
G01X5872441Y-3530118D03*
G54D17*
G01X5818799Y-3476476D03*
G01X5818799Y-3444980D03*
G01X5818799Y-3413484D03*
G01X5818799Y-3381988D03*
G01X5818799Y-3350492D03*
G01X5818799Y-3318996D03*
G01X5818799Y-3287500D03*
G01X5818799Y-3256004D03*
G54D11*
G01X5501969Y-3672835D03*
G54D12*
G01X5501969Y-3572835D03*
G54D11*
G01X5649606Y-3671260D03*
G54D12*
G01X5649606Y-3571260D03*
G01X5649606Y-3471260D03*
G01X5649606Y-3371260D03*
G54D11*
G01X5610236Y-3100394D03*
G54D12*
G01X5510236Y-3100394D03*
G54D19*
G01X5639764Y-3248031D03*
G01X5482283Y-3248031D03*
G54D20*
G01X4488189Y-3661417D03*
G01X4488189Y-3031496D03*
G01X7047244Y-3661417D03*
G01X7047244Y-3031496D03*
M02*
