G04 This is an RS-274x file exported by *
G04 gerbv version 2.10.0 *
G04 More information is available about gerbv at *
G04 https://gerbv.github.io/ *
G04 --End of header info--*
%MOIN*%
%FSLAX36Y36*%
%IPPOS*%
G04 --Define apertures--*
%ADD10C,0.0059*%
%ADD11C,0.0000*%
%ADD12C,0.0047*%
G04 --Start main section--*
G54D10*
G01X5065148Y-3147828D02*
G01X5042651Y-3147828D01*
G01X5053899Y-3147828D02*
G01X5053899Y-3108457D01*
G01X5053899Y-3108457D02*
G01X5050150Y-3114082D01*
G01X5050150Y-3114082D02*
G01X5046400Y-3117831D01*
G01X5046400Y-3117831D02*
G01X5042651Y-3119706D01*
G01X5080146Y-3112207D02*
G01X5082021Y-3110332D01*
G01X5082021Y-3110332D02*
G01X5085771Y-3108457D01*
G01X5085771Y-3108457D02*
G01X5095144Y-3108457D01*
G01X5095144Y-3108457D02*
G01X5098894Y-3110332D01*
G01X5098894Y-3110332D02*
G01X5100769Y-3112207D01*
G01X5100769Y-3112207D02*
G01X5102643Y-3115956D01*
G01X5102643Y-3115956D02*
G01X5102643Y-3119706D01*
G01X5102643Y-3119706D02*
G01X5100769Y-3125330D01*
G01X5100769Y-3125330D02*
G01X5078271Y-3147828D01*
G01X5078271Y-3147828D02*
G01X5102643Y-3147828D01*
G01X5125141Y-3125330D02*
G01X5121391Y-3123456D01*
G01X5121391Y-3123456D02*
G01X5119516Y-3121581D01*
G01X5119516Y-3121581D02*
G01X5117642Y-3117831D01*
G01X5117642Y-3117831D02*
G01X5117642Y-3115956D01*
G01X5117642Y-3115956D02*
G01X5119516Y-3112207D01*
G01X5119516Y-3112207D02*
G01X5121391Y-3110332D01*
G01X5121391Y-3110332D02*
G01X5125141Y-3108457D01*
G01X5125141Y-3108457D02*
G01X5132640Y-3108457D01*
G01X5132640Y-3108457D02*
G01X5136389Y-3110332D01*
G01X5136389Y-3110332D02*
G01X5138264Y-3112207D01*
G01X5138264Y-3112207D02*
G01X5140139Y-3115956D01*
G01X5140139Y-3115956D02*
G01X5140139Y-3117831D01*
G01X5140139Y-3117831D02*
G01X5138264Y-3121581D01*
G01X5138264Y-3121581D02*
G01X5136389Y-3123456D01*
G01X5136389Y-3123456D02*
G01X5132640Y-3125330D01*
G01X5132640Y-3125330D02*
G01X5125141Y-3125330D01*
G01X5125141Y-3125330D02*
G01X5121391Y-3127205D01*
G01X5121391Y-3127205D02*
G01X5119516Y-3129080D01*
G01X5119516Y-3129080D02*
G01X5117642Y-3132829D01*
G01X5117642Y-3132829D02*
G01X5117642Y-3140328D01*
G01X5117642Y-3140328D02*
G01X5119516Y-3144078D01*
G01X5119516Y-3144078D02*
G01X5121391Y-3145953D01*
G01X5121391Y-3145953D02*
G01X5125141Y-3147828D01*
G01X5125141Y-3147828D02*
G01X5132640Y-3147828D01*
G01X5132640Y-3147828D02*
G01X5136389Y-3145953D01*
G01X5136389Y-3145953D02*
G01X5138264Y-3144078D01*
G01X5138264Y-3144078D02*
G01X5140139Y-3140328D01*
G01X5140139Y-3140328D02*
G01X5140139Y-3132829D01*
G01X5140139Y-3132829D02*
G01X5138264Y-3129080D01*
G01X5138264Y-3129080D02*
G01X5136389Y-3127205D01*
G01X5136389Y-3127205D02*
G01X5132640Y-3125330D01*
G01X5185133Y-3106583D02*
G01X5151387Y-3157201D01*
G01X5218879Y-3147828D02*
G01X5196382Y-3147828D01*
G01X5207630Y-3147828D02*
G01X5207630Y-3108457D01*
G01X5207630Y-3108457D02*
G01X5203881Y-3114082D01*
G01X5203881Y-3114082D02*
G01X5200131Y-3117831D01*
G01X5200131Y-3117831D02*
G01X5196382Y-3119706D01*
G01X5243251Y-3108457D02*
G01X5247000Y-3108457D01*
G01X5247000Y-3108457D02*
G01X5250750Y-3110332D01*
G01X5250750Y-3110332D02*
G01X5252625Y-3112207D01*
G01X5252625Y-3112207D02*
G01X5254499Y-3115956D01*
G01X5254499Y-3115956D02*
G01X5256374Y-3123456D01*
G01X5256374Y-3123456D02*
G01X5256374Y-3132829D01*
G01X5256374Y-3132829D02*
G01X5254499Y-3140328D01*
G01X5254499Y-3140328D02*
G01X5252625Y-3144078D01*
G01X5252625Y-3144078D02*
G01X5250750Y-3145953D01*
G01X5250750Y-3145953D02*
G01X5247000Y-3147828D01*
G01X5247000Y-3147828D02*
G01X5243251Y-3147828D01*
G01X5243251Y-3147828D02*
G01X5239501Y-3145953D01*
G01X5239501Y-3145953D02*
G01X5237627Y-3144078D01*
G01X5237627Y-3144078D02*
G01X5235752Y-3140328D01*
G01X5235752Y-3140328D02*
G01X5233877Y-3132829D01*
G01X5233877Y-3132829D02*
G01X5233877Y-3123456D01*
G01X5233877Y-3123456D02*
G01X5235752Y-3115956D01*
G01X5235752Y-3115956D02*
G01X5237627Y-3112207D01*
G01X5237627Y-3112207D02*
G01X5239501Y-3110332D01*
G01X5239501Y-3110332D02*
G01X5243251Y-3108457D01*
G01X5271372Y-3112207D02*
G01X5273247Y-3110332D01*
G01X5273247Y-3110332D02*
G01X5276997Y-3108457D01*
G01X5276997Y-3108457D02*
G01X5286370Y-3108457D01*
G01X5286370Y-3108457D02*
G01X5290120Y-3110332D01*
G01X5290120Y-3110332D02*
G01X5291995Y-3112207D01*
G01X5291995Y-3112207D02*
G01X5293869Y-3115956D01*
G01X5293869Y-3115956D02*
G01X5293869Y-3119706D01*
G01X5293869Y-3119706D02*
G01X5291995Y-3125330D01*
G01X5291995Y-3125330D02*
G01X5269498Y-3147828D01*
G01X5269498Y-3147828D02*
G01X5293869Y-3147828D01*
G01X5327615Y-3121581D02*
G01X5327615Y-3147828D01*
G01X5318241Y-3106583D02*
G01X5308868Y-3134704D01*
G01X5308868Y-3134704D02*
G01X5333240Y-3134704D01*
G01X4694882Y-3147828D02*
G01X4694882Y-3108457D01*
G01X4694882Y-3108457D02*
G01X4708005Y-3136579D01*
G01X4708005Y-3136579D02*
G01X4721129Y-3108457D01*
G01X4721129Y-3108457D02*
G01X4721129Y-3147828D01*
G01X4738001Y-3136579D02*
G01X4756749Y-3136579D01*
G01X4734252Y-3147828D02*
G01X4747375Y-3108457D01*
G01X4747375Y-3108457D02*
G01X4760499Y-3147828D01*
G01X4794244Y-3110332D02*
G01X4790495Y-3108457D01*
G01X4790495Y-3108457D02*
G01X4784871Y-3108457D01*
G01X4784871Y-3108457D02*
G01X4779246Y-3110332D01*
G01X4779246Y-3110332D02*
G01X4775497Y-3114082D01*
G01X4775497Y-3114082D02*
G01X4773622Y-3117831D01*
G01X4773622Y-3117831D02*
G01X4771747Y-3125330D01*
G01X4771747Y-3125330D02*
G01X4771747Y-3130955D01*
G01X4771747Y-3130955D02*
G01X4773622Y-3138454D01*
G01X4773622Y-3138454D02*
G01X4775497Y-3142203D01*
G01X4775497Y-3142203D02*
G01X4779246Y-3145953D01*
G01X4779246Y-3145953D02*
G01X4784871Y-3147828D01*
G01X4784871Y-3147828D02*
G01X4788620Y-3147828D01*
G01X4788620Y-3147828D02*
G01X4794244Y-3145953D01*
G01X4794244Y-3145953D02*
G01X4796119Y-3144078D01*
G01X4796119Y-3144078D02*
G01X4796119Y-3130955D01*
G01X4796119Y-3130955D02*
G01X4788620Y-3130955D01*
G01X4812992Y-3147828D02*
G01X4812992Y-3108457D01*
G01X4854237Y-3144078D02*
G01X4852362Y-3145953D01*
G01X4852362Y-3145953D02*
G01X4846738Y-3147828D01*
G01X4846738Y-3147828D02*
G01X4842988Y-3147828D01*
G01X4842988Y-3147828D02*
G01X4837364Y-3145953D01*
G01X4837364Y-3145953D02*
G01X4833615Y-3142203D01*
G01X4833615Y-3142203D02*
G01X4831740Y-3138454D01*
G01X4831740Y-3138454D02*
G01X4829865Y-3130955D01*
G01X4829865Y-3130955D02*
G01X4829865Y-3125330D01*
G01X4829865Y-3125330D02*
G01X4831740Y-3117831D01*
G01X4831740Y-3117831D02*
G01X4833615Y-3114082D01*
G01X4833615Y-3114082D02*
G01X4837364Y-3110332D01*
G01X4837364Y-3110332D02*
G01X4842988Y-3108457D01*
G01X4842988Y-3108457D02*
G01X4846738Y-3108457D01*
G01X4846738Y-3108457D02*
G01X4852362Y-3110332D01*
G01X4852362Y-3110332D02*
G01X4854237Y-3112207D01*
G01X6921166Y-3167513D02*
G01X6908043Y-3148765D01*
G01X6898669Y-3167513D02*
G01X6898669Y-3128142D01*
G01X6898669Y-3128142D02*
G01X6913667Y-3128142D01*
G01X6913667Y-3128142D02*
G01X6917417Y-3130017D01*
G01X6917417Y-3130017D02*
G01X6919291Y-3131892D01*
G01X6919291Y-3131892D02*
G01X6921166Y-3135642D01*
G01X6921166Y-3135642D02*
G01X6921166Y-3141266D01*
G01X6921166Y-3141266D02*
G01X6919291Y-3145015D01*
G01X6919291Y-3145015D02*
G01X6917417Y-3146890D01*
G01X6917417Y-3146890D02*
G01X6913667Y-3148765D01*
G01X6913667Y-3148765D02*
G01X6898669Y-3148765D01*
G01X6938039Y-3146890D02*
G01X6951162Y-3146890D01*
G01X6956787Y-3167513D02*
G01X6938039Y-3167513D01*
G01X6938039Y-3167513D02*
G01X6938039Y-3128142D01*
G01X6938039Y-3128142D02*
G01X6956787Y-3128142D01*
G01X6971785Y-3165638D02*
G01X6977409Y-3167513D01*
G01X6977409Y-3167513D02*
G01X6986783Y-3167513D01*
G01X6986783Y-3167513D02*
G01X6990532Y-3165638D01*
G01X6990532Y-3165638D02*
G01X6992407Y-3163763D01*
G01X6992407Y-3163763D02*
G01X6994282Y-3160013D01*
G01X6994282Y-3160013D02*
G01X6994282Y-3156264D01*
G01X6994282Y-3156264D02*
G01X6992407Y-3152514D01*
G01X6992407Y-3152514D02*
G01X6990532Y-3150640D01*
G01X6990532Y-3150640D02*
G01X6986783Y-3148765D01*
G01X6986783Y-3148765D02*
G01X6979284Y-3146890D01*
G01X6979284Y-3146890D02*
G01X6975534Y-3145015D01*
G01X6975534Y-3145015D02*
G01X6973660Y-3143141D01*
G01X6973660Y-3143141D02*
G01X6971785Y-3139391D01*
G01X6971785Y-3139391D02*
G01X6971785Y-3135642D01*
G01X6971785Y-3135642D02*
G01X6973660Y-3131892D01*
G01X6973660Y-3131892D02*
G01X6975534Y-3130017D01*
G01X6975534Y-3130017D02*
G01X6979284Y-3128142D01*
G01X6979284Y-3128142D02*
G01X6988658Y-3128142D01*
G01X6988658Y-3128142D02*
G01X6994282Y-3130017D01*
G01X7011155Y-3146890D02*
G01X7024278Y-3146890D01*
G01X7029902Y-3167513D02*
G01X7011155Y-3167513D01*
G01X7011155Y-3167513D02*
G01X7011155Y-3128142D01*
G01X7011155Y-3128142D02*
G01X7029902Y-3128142D01*
G01X7041151Y-3128142D02*
G01X7063648Y-3128142D01*
G01X7052400Y-3167513D02*
G01X7052400Y-3128142D01*
G01X6431384Y-3443103D02*
G01X6431384Y-3403733D01*
G01X6431384Y-3403733D02*
G01X6446382Y-3403733D01*
G01X6446382Y-3403733D02*
G01X6450131Y-3405608D01*
G01X6450131Y-3405608D02*
G01X6452006Y-3407483D01*
G01X6452006Y-3407483D02*
G01X6453881Y-3411232D01*
G01X6453881Y-3411232D02*
G01X6453881Y-3416856D01*
G01X6453881Y-3416856D02*
G01X6452006Y-3420606D01*
G01X6452006Y-3420606D02*
G01X6450131Y-3422481D01*
G01X6450131Y-3422481D02*
G01X6446382Y-3424355D01*
G01X6446382Y-3424355D02*
G01X6431384Y-3424355D01*
G01X6493251Y-3443103D02*
G01X6480127Y-3424355D01*
G01X6470754Y-3443103D02*
G01X6470754Y-3403733D01*
G01X6470754Y-3403733D02*
G01X6485752Y-3403733D01*
G01X6485752Y-3403733D02*
G01X6489501Y-3405608D01*
G01X6489501Y-3405608D02*
G01X6491376Y-3407483D01*
G01X6491376Y-3407483D02*
G01X6493251Y-3411232D01*
G01X6493251Y-3411232D02*
G01X6493251Y-3416856D01*
G01X6493251Y-3416856D02*
G01X6491376Y-3420606D01*
G01X6491376Y-3420606D02*
G01X6489501Y-3422481D01*
G01X6489501Y-3422481D02*
G01X6485752Y-3424355D01*
G01X6485752Y-3424355D02*
G01X6470754Y-3424355D01*
G01X6510124Y-3422481D02*
G01X6523247Y-3422481D01*
G01X6528871Y-3443103D02*
G01X6510124Y-3443103D01*
G01X6510124Y-3443103D02*
G01X6510124Y-3403733D01*
G01X6510124Y-3403733D02*
G01X6528871Y-3403733D01*
G01X6540120Y-3403733D02*
G01X6553243Y-3443103D01*
G01X6553243Y-3443103D02*
G01X6566367Y-3403733D01*
G01X6413573Y-2962788D02*
G01X6413573Y-2923418D01*
G01X6413573Y-2923418D02*
G01X6436070Y-2962788D01*
G01X6436070Y-2962788D02*
G01X6436070Y-2923418D01*
G01X6454818Y-2942166D02*
G01X6467941Y-2942166D01*
G01X6473566Y-2962788D02*
G01X6454818Y-2962788D01*
G01X6454818Y-2962788D02*
G01X6454818Y-2923418D01*
G01X6454818Y-2923418D02*
G01X6473566Y-2923418D01*
G01X6486689Y-2923418D02*
G01X6512936Y-2962788D01*
G01X6512936Y-2923418D02*
G01X6486689Y-2962788D01*
G01X6522310Y-2923418D02*
G01X6544807Y-2923418D01*
G01X6533558Y-2962788D02*
G01X6533558Y-2923418D01*
G54D11*
G36*
G01X6874306Y-3565092D02*
G01X6873547Y-3566489D01*
G01X6872469Y-3568285D01*
G01X6871223Y-3570229D01*
G01X6869963Y-3572071D01*
G01X6869614Y-3572553D01*
G01X6867771Y-3574789D01*
G01X6865321Y-3577383D01*
G01X6862552Y-3580055D01*
G01X6859752Y-3582529D01*
G01X6857295Y-3584462D01*
G01X6854438Y-3586301D01*
G01X6850787Y-3588297D01*
G01X6846609Y-3590317D01*
G01X6842168Y-3592229D01*
G01X6840414Y-3592919D01*
G01X6835255Y-3594680D01*
G01X6829035Y-3596424D01*
G01X6821789Y-3598143D01*
G01X6813553Y-3599829D01*
G01X6804363Y-3601472D01*
G01X6803386Y-3601635D01*
G01X6799072Y-3602362D01*
G01X6794789Y-3603108D01*
G01X6790750Y-3603834D01*
G01X6787173Y-3604500D01*
G01X6784272Y-3605067D01*
G01X6782437Y-3605455D01*
G01X6776846Y-3606909D01*
G01X6771218Y-3608719D01*
G01X6765767Y-3610795D01*
G01X6760707Y-3613047D01*
G01X6756254Y-3615385D01*
G01X6752621Y-3617719D01*
G01X6751843Y-3618309D01*
G01X6750232Y-3619788D01*
G01X6748801Y-3621463D01*
G01X6747699Y-3623107D01*
G01X6747073Y-3624493D01*
G01X6747073Y-3625394D01*
G01X6747148Y-3625485D01*
G01X6747890Y-3625874D01*
G01X6749323Y-3626436D01*
G01X6750570Y-3626864D01*
G01X6752768Y-3627388D01*
G01X6755248Y-3627580D01*
G01X6758171Y-3627427D01*
G01X6761698Y-3626914D01*
G01X6765988Y-3626029D01*
G01X6769100Y-3625288D01*
G01X6775590Y-3623809D01*
G01X6781168Y-3622817D01*
G01X6785904Y-3622307D01*
G01X6789865Y-3622275D01*
G01X6793122Y-3622717D01*
G01X6795744Y-3623630D01*
G01X6795887Y-3623702D01*
G01X6797185Y-3624589D01*
G01X6798926Y-3626081D01*
G01X6800847Y-3627941D01*
G01X6802122Y-3629296D01*
G01X6804013Y-3631269D01*
G01X6805899Y-3633032D01*
G01X6807519Y-3634350D01*
G01X6808337Y-3634873D01*
G01X6810522Y-3635988D01*
G01X6810142Y-3633739D01*
G01X6809762Y-3631490D01*
G01X6812789Y-3632829D01*
G01X6814581Y-3633719D01*
G01X6816664Y-3634899D01*
G01X6818781Y-3636205D01*
G01X6820676Y-3637473D01*
G01X6822094Y-3638539D01*
G01X6822753Y-3639199D01*
G01X6823548Y-3639706D01*
G01X6823884Y-3639750D01*
G01X6824443Y-3639343D01*
G01X6824666Y-3638037D01*
G01X6824675Y-3637556D01*
G01X6824789Y-3636181D01*
G01X6825074Y-3635417D01*
G01X6825189Y-3635361D01*
G01X6825875Y-3635687D01*
G01X6827187Y-3636555D01*
G01X6828912Y-3637802D01*
G01X6830837Y-3639265D01*
G01X6832747Y-3640781D01*
G01X6834429Y-3642186D01*
G01X6835670Y-3643318D01*
G01X6835867Y-3643519D01*
G01X6837141Y-3644645D01*
G01X6837944Y-3644798D01*
G01X6838332Y-3643967D01*
G01X6838388Y-3643041D01*
G01X6838559Y-3641787D01*
G01X6838932Y-3641124D01*
G01X6839722Y-3641227D01*
G01X6841146Y-3641988D01*
G01X6843047Y-3643301D01*
G01X6845272Y-3645063D01*
G01X6846981Y-3646545D01*
G01X6848545Y-3647895D01*
G01X6849723Y-3648653D01*
G01X6850918Y-3648989D01*
G01X6852533Y-3649073D01*
G01X6853005Y-3649075D01*
G01X6855886Y-3648809D01*
G01X6858714Y-3648117D01*
G01X6859102Y-3647978D01*
G01X6862118Y-3647112D01*
G01X6864896Y-3647010D01*
G01X6867839Y-3647682D01*
G01X6869381Y-3648263D01*
G01X6871632Y-3649122D01*
G01X6873342Y-3649505D01*
G01X6874932Y-3649411D01*
G01X6876827Y-3648841D01*
G01X6878327Y-3648252D01*
G01X6881495Y-3647280D01*
G01X6884580Y-3646903D01*
G01X6887279Y-3647137D01*
G01X6888745Y-3647657D01*
G01X6890675Y-3649062D01*
G01X6892846Y-3651326D01*
G01X6895104Y-3654286D01*
G01X6895430Y-3654765D01*
G01X6896502Y-3656125D01*
G01X6897847Y-3657330D01*
G01X6899618Y-3658462D01*
G01X6901965Y-3659600D01*
G01X6905041Y-3660827D01*
G01X6908995Y-3662223D01*
G01X6909994Y-3662559D01*
G01X6914027Y-3663803D01*
G01X6917328Y-3664552D01*
G01X6920131Y-3664826D01*
G01X6922673Y-3664645D01*
G01X6925188Y-3664030D01*
G01X6925566Y-3663906D01*
G01X6928148Y-3663178D01*
G01X6930276Y-3662961D01*
G01X6931688Y-3663069D01*
G01X6933657Y-3663188D01*
G01X6935092Y-3662836D01*
G01X6935771Y-3662454D01*
G01X6937793Y-3661681D01*
G01X6940279Y-3661506D01*
G01X6942777Y-3661924D01*
G01X6944301Y-3662570D01*
G01X6945778Y-3663790D01*
G01X6947062Y-3665433D01*
G01X6947275Y-3665813D01*
G01X6948265Y-3667426D01*
G01X6949359Y-3668755D01*
G01X6949617Y-3668991D01*
G01X6951408Y-3671152D01*
G01X6952358Y-3673893D01*
G01X6952486Y-3675443D01*
G01X6952349Y-3676977D01*
G01X6951795Y-3678215D01*
G01X6950610Y-3679601D01*
G01X6950356Y-3679858D01*
G01X6949266Y-3680910D01*
G01X6948369Y-3681542D01*
G01X6947335Y-3681861D01*
G01X6945834Y-3681974D01*
G01X6943785Y-3681988D01*
G01X6941020Y-3682082D01*
G01X6938793Y-3682434D01*
G01X6936555Y-3683145D01*
G01X6935680Y-3683492D01*
G01X6933570Y-3684486D01*
G01X6932198Y-3685403D01*
G01X6931757Y-3685991D01*
G01X6931213Y-3686697D01*
G01X6930740Y-3686696D01*
G01X6929703Y-3686690D01*
G01X6928628Y-3687023D01*
G01X6927653Y-3687724D01*
G01X6927555Y-3688742D01*
G01X6927597Y-3688928D01*
G01X6927632Y-3689968D01*
G01X6927261Y-3690216D01*
G01X6926592Y-3689760D01*
G01X6926337Y-3689203D01*
G01X6925723Y-3688462D01*
G01X6924744Y-3688385D01*
G01X6923827Y-3688875D01*
G01X6923396Y-3689834D01*
G01X6923396Y-3689869D01*
G01X6923318Y-3690676D01*
G01X6922967Y-3690482D01*
G01X6922649Y-3690079D01*
G01X6921569Y-3689363D01*
G01X6920274Y-3689119D01*
G01X6919137Y-3689231D01*
G01X6918803Y-3689755D01*
G01X6918890Y-3690490D01*
G01X6918894Y-3691511D01*
G01X6918576Y-3691862D01*
G01X6918103Y-3691387D01*
G01X6917827Y-3690353D01*
G01X6917477Y-3689223D01*
G01X6916587Y-3688854D01*
G01X6916287Y-3688845D01*
G01X6915231Y-3689097D01*
G01X6914683Y-3690054D01*
G01X6914577Y-3690490D01*
G01X6914234Y-3692136D01*
G01X6913819Y-3690360D01*
G01X6913333Y-3689233D01*
G01X6912369Y-3688410D01*
G01X6910760Y-3687821D01*
G01X6908338Y-3687396D01*
G01X6906134Y-3687165D01*
G01X6904336Y-3687018D01*
G01X6903481Y-3687022D01*
G01X6903420Y-3687231D01*
G01X6904004Y-3687697D01*
G01X6904214Y-3687846D01*
G01X6905112Y-3688579D01*
G01X6906606Y-3689903D01*
G01X6908502Y-3691642D01*
G01X6910608Y-3693622D01*
G01X6911071Y-3694063D01*
G01X6914423Y-3697189D01*
G01X6917308Y-3699679D01*
G01X6919976Y-3701724D01*
G01X6922681Y-3703518D01*
G01X6925672Y-3705252D01*
G01X6925744Y-3705291D01*
G01X6927858Y-3706362D01*
G01X6929094Y-3706776D01*
G01X6929459Y-3706586D01*
G01X6929740Y-3706448D01*
G01X6930413Y-3707079D01*
G01X6930524Y-3707219D01*
G01X6931576Y-3708589D01*
G01X6932101Y-3707219D01*
G01X6932625Y-3705850D01*
G01X6933217Y-3707358D01*
G01X6933808Y-3708569D01*
G01X6934293Y-3708728D01*
G01X6934791Y-3707857D01*
G01X6934867Y-3707658D01*
G01X6935202Y-3706899D01*
G01X6935518Y-3706970D01*
G01X6936047Y-3707949D01*
G01X6936106Y-3708069D01*
G01X6937064Y-3709321D01*
G01X6937960Y-3709593D01*
G01X6939074Y-3709959D01*
G01X6940347Y-3711029D01*
G01X6941502Y-3712500D01*
G01X6942261Y-3714068D01*
G01X6942344Y-3714378D01*
G01X6942300Y-3716548D01*
G01X6941279Y-3718601D01*
G01X6939401Y-3720469D01*
G01X6936784Y-3722085D01*
G01X6933548Y-3723379D01*
G01X6929812Y-3724284D01*
G01X6925695Y-3724732D01*
G01X6924170Y-3724768D01*
G01X6922644Y-3724729D01*
G01X6921010Y-3724587D01*
G01X6919117Y-3724314D01*
G01X6916815Y-3723879D01*
G01X6913952Y-3723254D01*
G01X6910378Y-3722410D01*
G01X6905941Y-3721316D01*
G01X6904422Y-3720936D01*
G01X6900413Y-3719944D01*
G01X6896681Y-3719047D01*
G01X6893377Y-3718280D01*
G01X6890656Y-3717677D01*
G01X6888668Y-3717273D01*
G01X6887567Y-3717102D01*
G01X6887483Y-3717098D01*
G01X6886492Y-3717191D01*
G01X6884592Y-3717450D01*
G01X6881957Y-3717849D01*
G01X6878756Y-3718362D01*
G01X6875164Y-3718962D01*
G01X6872672Y-3719390D01*
G01X6868502Y-3720110D01*
G01X6865154Y-3720661D01*
G01X6862370Y-3721066D01*
G01X6859894Y-3721348D01*
G01X6857466Y-3721528D01*
G01X6854830Y-3721631D01*
G01X6851728Y-3721679D01*
G01X6847902Y-3721694D01*
G01X6846616Y-3721696D01*
G01X6842445Y-3721694D01*
G01X6839165Y-3721666D01*
G01X6836571Y-3721598D01*
G01X6834457Y-3721471D01*
G01X6832616Y-3721272D01*
G01X6830844Y-3720983D01*
G01X6828935Y-3720588D01*
G01X6827143Y-3720179D01*
G01X6824205Y-3719444D01*
G01X6821299Y-3718627D01*
G01X6818792Y-3717838D01*
G01X6817269Y-3717277D01*
G01X6815490Y-3716570D01*
G01X6814094Y-3716076D01*
G01X6813429Y-3715910D01*
G01X6812358Y-3716026D01*
G01X6810782Y-3716315D01*
G01X6809033Y-3716701D01*
G01X6807441Y-3717107D01*
G01X6806335Y-3717455D01*
G01X6806024Y-3717639D01*
G01X6806471Y-3718068D01*
G01X6807591Y-3718723D01*
G01X6808081Y-3718966D01*
G01X6810351Y-3720199D01*
G01X6813084Y-3721915D01*
G01X6815924Y-3723869D01*
G01X6818509Y-3725820D01*
G01X6819805Y-3726901D01*
G01X6822635Y-3728854D01*
G01X6824999Y-3729762D01*
G01X6828923Y-3731139D01*
G01X6832181Y-3733143D01*
G01X6834625Y-3735672D01*
G01X6835418Y-3736952D01*
G01X6836087Y-3738438D01*
G01X6836064Y-3739146D01*
G01X6835305Y-3739184D01*
G01X6834599Y-3738972D01*
G01X6832941Y-3738640D01*
G01X6831051Y-3738578D01*
G01X6830896Y-3738589D01*
G01X6829523Y-3738796D01*
G01X6828984Y-3739225D01*
G01X6828980Y-3739859D01*
G01X6829161Y-3741080D01*
G01X6829385Y-3742811D01*
G01X6829457Y-3743418D01*
G01X6829743Y-3745880D01*
G01X6827186Y-3743524D01*
G01X6825642Y-3742195D01*
G01X6824479Y-3741512D01*
G01X6823344Y-3741306D01*
G01X6822595Y-3741336D01*
G01X6820561Y-3741505D01*
G01X6820219Y-3744680D01*
G01X6819986Y-3746445D01*
G01X6819734Y-3747726D01*
G01X6819567Y-3748166D01*
G01X6819065Y-3747974D01*
G01X6818122Y-3747140D01*
G01X6817449Y-3746418D01*
G01X6815656Y-3744771D01*
G01X6813647Y-3743529D01*
G01X6811795Y-3742909D01*
G01X6811367Y-3742876D01*
G01X6810760Y-3743333D01*
G01X6809915Y-3744521D01*
G01X6809161Y-3745893D01*
G01X6808164Y-3747686D01*
G01X6807336Y-3748718D01*
G01X6806770Y-3748908D01*
G01X6806559Y-3748225D01*
G01X6806151Y-3747100D01*
G01X6805110Y-3745558D01*
G01X6803665Y-3743861D01*
G01X6802043Y-3742273D01*
G01X6800472Y-3741056D01*
G01X6800227Y-3740906D01*
G01X6798700Y-3740160D01*
G01X6796749Y-3739509D01*
G01X6794160Y-3738895D01*
G01X6790719Y-3738258D01*
G01X6790187Y-3738169D01*
G01X6783252Y-3736741D01*
G01X6777318Y-3734919D01*
G01X6772358Y-3732684D01*
G01X6768341Y-3730019D01*
G01X6765239Y-3726907D01*
G01X6763024Y-3723330D01*
G01X6762078Y-3720852D01*
G01X6761347Y-3717632D01*
G01X6761291Y-3714677D01*
G01X6761931Y-3711582D01*
G01X6762746Y-3709270D01*
G01X6763396Y-3707283D01*
G01X6763429Y-3706097D01*
G01X6762839Y-3705601D01*
G01X6762519Y-3705570D01*
G01X6761799Y-3705341D01*
G01X6760307Y-3704717D01*
G01X6758257Y-3703794D01*
G01X6755860Y-3702662D01*
G01X6755665Y-3702569D01*
G01X6748237Y-3698599D01*
G01X6741060Y-3694035D01*
G01X6736419Y-3690627D01*
G01X6734578Y-3689250D01*
G01X6733394Y-3688545D01*
G01X6732721Y-3688435D01*
G01X6732491Y-3688640D01*
G01X6731987Y-3689382D01*
G01X6730977Y-3690759D01*
G01X6729629Y-3692544D01*
G01X6728727Y-3693719D01*
G01X6727313Y-3695591D01*
G01X6726196Y-3697150D01*
G01X6725521Y-3698189D01*
G01X6725388Y-3698486D01*
G01X6725919Y-3699276D01*
G01X6727470Y-3700211D01*
G01X6729980Y-3701258D01*
G01X6732204Y-3702018D01*
G01X6736227Y-3703624D01*
G01X6739507Y-3705597D01*
G01X6741912Y-3707850D01*
G01X6742928Y-3709389D01*
G01X6743606Y-3710838D01*
G01X6743999Y-3711906D01*
G01X6744038Y-3712132D01*
G01X6743600Y-3712194D01*
G01X6742452Y-3711810D01*
G01X6740884Y-3711082D01*
G01X6738310Y-3709872D01*
G01X6736606Y-3709326D01*
G01X6735772Y-3709446D01*
G01X6735702Y-3709913D01*
G01X6735836Y-3710834D01*
G01X6736023Y-3712477D01*
G01X6736204Y-3714289D01*
G01X6736541Y-3717894D01*
G01X6734738Y-3716377D01*
G01X6732734Y-3714915D01*
G01X6730732Y-3713834D01*
G01X6728934Y-3713198D01*
G01X6727542Y-3713070D01*
G01X6726758Y-3713517D01*
G01X6726667Y-3713804D01*
G01X6726531Y-3714817D01*
G01X6726316Y-3716435D01*
G01X6726207Y-3717266D01*
G01X6725859Y-3719906D01*
G01X6723492Y-3717724D01*
G01X6721295Y-3715908D01*
G01X6719226Y-3714577D01*
G01X6717526Y-3713876D01*
G01X6716979Y-3713804D01*
G01X6716367Y-3714293D01*
G01X6715598Y-3715606D01*
G01X6714965Y-3717095D01*
G01X6714283Y-3718785D01*
G01X6713710Y-3719969D01*
G01X6713390Y-3720374D01*
G01X6712919Y-3719949D01*
G01X6712076Y-3718868D01*
G01X6711400Y-3717895D01*
G01X6710280Y-3716436D01*
G01X6708621Y-3714534D01*
G01X6706691Y-3712492D01*
G01X6705566Y-3711374D01*
G01X6702766Y-3708413D01*
G01X6700756Y-3705741D01*
G01X6700002Y-3704390D01*
G01X6698245Y-3699437D01*
G01X6697567Y-3694354D01*
G01X6697942Y-3689493D01*
G01X6702982Y-3689493D01*
G01X6702985Y-3693587D01*
G01X6703951Y-3697326D01*
G01X6704943Y-3699774D01*
G01X6705921Y-3697875D01*
G01X6707214Y-3695663D01*
G01X6708725Y-3693760D01*
G01X6710677Y-3691943D01*
G01X6713290Y-3689992D01*
G01X6714908Y-3688902D01*
G01X6719238Y-3685779D01*
G01X6722639Y-3682689D01*
G01X6725261Y-3679472D01*
G01X6727206Y-3676076D01*
G01X6727986Y-3674355D01*
G01X6728491Y-3672923D01*
G01X6728782Y-3671454D01*
G01X6728916Y-3669621D01*
G01X6728952Y-3667096D01*
G01X6728953Y-3666354D01*
G01X6728929Y-3663599D01*
G01X6728824Y-3661646D01*
G01X6728589Y-3660198D01*
G01X6728175Y-3658960D01*
G01X6727534Y-3657638D01*
G01X6727502Y-3657577D01*
G01X6726404Y-3655713D01*
G01X6725218Y-3654011D01*
G01X6724648Y-3653326D01*
G01X6723834Y-3652322D01*
G01X6723828Y-3651911D01*
G01X6724660Y-3652094D01*
G01X6726363Y-3652875D01*
G01X6727688Y-3653564D01*
G01X6731243Y-3656070D01*
G01X6734145Y-3659421D01*
G01X6736350Y-3663551D01*
G01X6737816Y-3668391D01*
G01X6738029Y-3669508D01*
G01X6738368Y-3671353D01*
G01X6738654Y-3672679D01*
G01X6738826Y-3673210D01*
G01X6738830Y-3673211D01*
G01X6739057Y-3672729D01*
G01X6739502Y-3671460D01*
G01X6740071Y-3669668D01*
G01X6740123Y-3669497D01*
G01X6740885Y-3667473D01*
G01X6741950Y-3665260D01*
G01X6743164Y-3663115D01*
G01X6744375Y-3661293D01*
G01X6745430Y-3660051D01*
G01X6745993Y-3659664D01*
G01X6746052Y-3660020D01*
G01X6745687Y-3661133D01*
G01X6744975Y-3662786D01*
G01X6744744Y-3663274D01*
G01X6743650Y-3665883D01*
G01X6742636Y-3668871D01*
G01X6742009Y-3671229D01*
G01X6741556Y-3673589D01*
G01X6741511Y-3675223D01*
G01X6742014Y-3676420D01*
G01X6743200Y-3677469D01*
G01X6745209Y-3678658D01*
G01X6745679Y-3678915D01*
G01X6748393Y-3680392D01*
G01X6748736Y-3678859D01*
G01X6749742Y-3674866D01*
G01X6750811Y-3671698D01*
G01X6752046Y-3669080D01*
G01X6752806Y-3667815D01*
G01X6754309Y-3665599D01*
G01X6755333Y-3664312D01*
G01X6755864Y-3663959D01*
G01X6755885Y-3664544D01*
G01X6755382Y-3666072D01*
G01X6754946Y-3667151D01*
G01X6753901Y-3669890D01*
G01X6752919Y-3672907D01*
G01X6752085Y-3675899D01*
G01X6751479Y-3678565D01*
G01X6751185Y-3680601D01*
G01X6751169Y-3681010D01*
G01X6751259Y-3681836D01*
G01X6751660Y-3682493D01*
G01X6752575Y-3683150D01*
G01X6754205Y-3683976D01*
G01X6755314Y-3684487D01*
G01X6757316Y-3685363D01*
G01X6758982Y-3686023D01*
G01X6760025Y-3686356D01*
G01X6760173Y-3686376D01*
G01X6760688Y-3685840D01*
G01X6761085Y-3684271D01*
G01X6761222Y-3683222D01*
G01X6762150Y-3678220D01*
G01X6763846Y-3673826D01*
G01X6765272Y-3671372D01*
G01X6766569Y-3669512D01*
G01X6767413Y-3668536D01*
G01X6767770Y-3668456D01*
G01X6767607Y-3669284D01*
G01X6767028Y-3670725D01*
G01X6765884Y-3673822D01*
G01X6764865Y-3677497D01*
G01X6764096Y-3681233D01*
G01X6763707Y-3684456D01*
G01X6763512Y-3687748D01*
G01X6766254Y-3688647D01*
G01X6768389Y-3689269D01*
G01X6770552Y-3689784D01*
G01X6771289Y-3689923D01*
G01X6773580Y-3690299D01*
G01X6773894Y-3687652D01*
G01X6774504Y-3683422D01*
G01X6775244Y-3680059D01*
G01X6776172Y-3677334D01*
G01X6776673Y-3676239D01*
G01X6777517Y-3674677D01*
G01X6778406Y-3673233D01*
G01X6779212Y-3672077D01*
G01X6779808Y-3671380D01*
G01X6780068Y-3671314D01*
G01X6779944Y-3671840D01*
G01X6779139Y-3674330D01*
G01X6778378Y-3677183D01*
G01X6777700Y-3680191D01*
G01X6777140Y-3683144D01*
G01X6776735Y-3685835D01*
G01X6776522Y-3688054D01*
G01X6776536Y-3689592D01*
G01X6776738Y-3690195D01*
G01X6777434Y-3690254D01*
G01X6778960Y-3690066D01*
G01X6781085Y-3689668D01*
G01X6783397Y-3689143D01*
G01X6785817Y-3688562D01*
G01X6787791Y-3688111D01*
G01X6789111Y-3687836D01*
G01X6789568Y-3687781D01*
G01X6789145Y-3688127D01*
G01X6788080Y-3688823D01*
G01X6787511Y-3689172D01*
G01X6785473Y-3690533D01*
G01X6782933Y-3692422D01*
G01X6780177Y-3694607D01*
G01X6777491Y-3696854D01*
G01X6775164Y-3698931D01*
G01X6773616Y-3700457D01*
G01X6770653Y-3703995D01*
G01X6768342Y-3707506D01*
G01X6766772Y-3710828D01*
G01X6766029Y-3713801D01*
G01X6765980Y-3714663D01*
G01X6766447Y-3717059D01*
G01X6767757Y-3719684D01*
G01X6769773Y-3722270D01*
G01X6769983Y-3722490D01*
G01X6773236Y-3725137D01*
G01X6777515Y-3727423D01*
G01X6782822Y-3729349D01*
G01X6789163Y-3730917D01*
G01X6791457Y-3731352D01*
G01X6794979Y-3732095D01*
G01X6797811Y-3732941D01*
G01X6799584Y-3733732D01*
G01X6800991Y-3734530D01*
G01X6801972Y-3735045D01*
G01X6802207Y-3735142D01*
G01X6802716Y-3734810D01*
G01X6803744Y-3733892D01*
G01X6804895Y-3732761D01*
G01X6806448Y-3731332D01*
G01X6807970Y-3730176D01*
G01X6808849Y-3729677D01*
G01X6809945Y-3729094D01*
G01X6810412Y-3728590D01*
G01X6810412Y-3728583D01*
G01X6809964Y-3728036D01*
G01X6808745Y-3727073D01*
G01X6806939Y-3725812D01*
G01X6804733Y-3724374D01*
G01X6802314Y-3722876D01*
G01X6799867Y-3721438D01*
G01X6797579Y-3720178D01*
G01X6796024Y-3719395D01*
G01X6791752Y-3717476D01*
G01X6788212Y-3716136D01*
G01X6785235Y-3715326D01*
G01X6782653Y-3714997D01*
G01X6780948Y-3715031D01*
G01X6779003Y-3715253D01*
G01X6777374Y-3715542D01*
G01X6776677Y-3715740D01*
G01X6775940Y-3716001D01*
G01X6775977Y-3715754D01*
G01X6776579Y-3715044D01*
G01X6778501Y-3713539D01*
G01X6781122Y-3712410D01*
G01X6784074Y-3711783D01*
G01X6786429Y-3711727D01*
G01X6788287Y-3711816D01*
G01X6789392Y-3711686D01*
G01X6790080Y-3711245D01*
G01X6790544Y-3710630D01*
G01X6791082Y-3709641D01*
G01X6790898Y-3708977D01*
G01X6790080Y-3708277D01*
G01X6788872Y-3707451D01*
G01X6787134Y-3706374D01*
G01X6785728Y-3705557D01*
G01X6782711Y-3703857D01*
G01X6785179Y-3704193D01*
G01X6787132Y-3704631D01*
G01X6789394Y-3705378D01*
G01X6790585Y-3705871D01*
G01X6793523Y-3707213D01*
G01X6795111Y-3706083D01*
G01X6796166Y-3705230D01*
G01X6796687Y-3704609D01*
G01X6796699Y-3704552D01*
G01X6796289Y-3703841D01*
G01X6795221Y-3702713D01*
G01X6793735Y-3701380D01*
G01X6792070Y-3700054D01*
G01X6790467Y-3698947D01*
G01X6790116Y-3698737D01*
G01X6788784Y-3697940D01*
G01X6788354Y-3697577D01*
G01X6788760Y-3697563D01*
G01X6789293Y-3697670D01*
G01X6791950Y-3698499D01*
G01X6794800Y-3699775D01*
G01X6797253Y-3701230D01*
G01X6797596Y-3701481D01*
G01X6798868Y-3702327D01*
G01X6799815Y-3702514D01*
G01X6800780Y-3702199D01*
G01X6801859Y-3701245D01*
G01X6802162Y-3699685D01*
G01X6801685Y-3697466D01*
G01X6800426Y-3694534D01*
G01X6800374Y-3694432D01*
G01X6799461Y-3692529D01*
G01X6799114Y-3691516D01*
G01X6799349Y-3691330D01*
G01X6800181Y-3691912D01*
G01X6800868Y-3692510D01*
G01X6802020Y-3693544D01*
G01X6802373Y-3689366D01*
G01X6803170Y-3683775D01*
G01X6803211Y-3683633D01*
G01X6811235Y-3683633D01*
G01X6811279Y-3686299D01*
G01X6811454Y-3688241D01*
G01X6811825Y-3689831D01*
G01X6812457Y-3691441D01*
G01X6812681Y-3691927D01*
G01X6815152Y-3695974D01*
G01X6818579Y-3699577D01*
G01X6821542Y-3701843D01*
G01X6823208Y-3702890D01*
G01X6825206Y-3704024D01*
G01X6827265Y-3705106D01*
G01X6829110Y-3705996D01*
G01X6830469Y-3706554D01*
G01X6830970Y-3706672D01*
G01X6830867Y-3706219D01*
G01X6830386Y-3705018D01*
G01X6829625Y-3703313D01*
G01X6829466Y-3702970D01*
G01X6828561Y-3700858D01*
G01X6827999Y-3698960D01*
G01X6827679Y-3696830D01*
G01X6827510Y-3694220D01*
G01X6827431Y-3691741D01*
G01X6827493Y-3689980D01*
G01X6827762Y-3688561D01*
G01X6828299Y-3687106D01*
G01X6828941Y-3685717D01*
G01X6831141Y-3682043D01*
G01X6833865Y-3678995D01*
G01X6836928Y-3676759D01*
G01X6838580Y-3675985D01*
G01X6839403Y-3675700D01*
G01X6839647Y-3675775D01*
G01X6839265Y-3676354D01*
G01X6838209Y-3677584D01*
G01X6837965Y-3677862D01*
G01X6835870Y-3680948D01*
G01X6834794Y-3684202D01*
G01X6834686Y-3687553D01*
G01X6835493Y-3690931D01*
G01X6837163Y-3694262D01*
G01X6839646Y-3697478D01*
G01X6842889Y-3700505D01*
G01X6846841Y-3703274D01*
G01X6851450Y-3705713D01*
G01X6856664Y-3707750D01*
G01X6860479Y-3708858D01*
G01X6863733Y-3709597D01*
G01X6867364Y-3710294D01*
G01X6870810Y-3710845D01*
G01X6872409Y-3711046D01*
G01X6877814Y-3711648D01*
G01X6882320Y-3712184D01*
G01X6886120Y-3712685D01*
G01X6889408Y-3713184D01*
G01X6892378Y-3713711D01*
G01X6895222Y-3714299D01*
G01X6898136Y-3714979D01*
G01X6901311Y-3715784D01*
G01X6901346Y-3715793D01*
G01X6905928Y-3716982D01*
G01X6909598Y-3717925D01*
G01X6912508Y-3718657D01*
G01X6914805Y-3719214D01*
G01X6916641Y-3719630D01*
G01X6918164Y-3719942D01*
G01X6919524Y-3720184D01*
G01X6920616Y-3720355D01*
G01X6924186Y-3720605D01*
G01X6928135Y-3720434D01*
G01X6931841Y-3719874D01*
G01X6932461Y-3719728D01*
G01X6934887Y-3718937D01*
G01X6937049Y-3717913D01*
G01X6938648Y-3716816D01*
G01X6939279Y-3716076D01*
G01X6939523Y-3715508D01*
G01X6939274Y-3715413D01*
G01X6938343Y-3715807D01*
G01X6937514Y-3716215D01*
G01X6936305Y-3716727D01*
G01X6934918Y-3717084D01*
G01X6933106Y-3717323D01*
G01X6930625Y-3717479D01*
G01X6928207Y-3717561D01*
G01X6924239Y-3717586D01*
G01X6920585Y-3717400D01*
G01X6917083Y-3716956D01*
G01X6913572Y-3716208D01*
G01X6913376Y-3716149D01*
G01X6924225Y-3716149D01*
G01X6924259Y-3716584D01*
G01X6925065Y-3717031D01*
G01X6926195Y-3717012D01*
G01X6926973Y-3716556D01*
G01X6927102Y-3715736D01*
G01X6926995Y-3714458D01*
G01X6926828Y-3713646D01*
G01X6934114Y-3713646D01*
G01X6934372Y-3714877D01*
G01X6934412Y-3714953D01*
G01X6935193Y-3715789D01*
G01X6935934Y-3715618D01*
G01X6936426Y-3714517D01*
G01X6936475Y-3714200D01*
G01X6936347Y-3712576D01*
G01X6935968Y-3711499D01*
G01X6935291Y-3710238D01*
G01X6934554Y-3712040D01*
G01X6934114Y-3713646D01*
G01X6926828Y-3713646D01*
G01X6926729Y-3713164D01*
G01X6926382Y-3712295D01*
G01X6926196Y-3712158D01*
G01X6925691Y-3712616D01*
G01X6925073Y-3713713D01*
G01X6924523Y-3715030D01*
G01X6924225Y-3716149D01*
G01X6913376Y-3716149D01*
G01X6909890Y-3715109D01*
G01X6905874Y-3713613D01*
G01X6902508Y-3712165D01*
G01X6907282Y-3712165D01*
G01X6907342Y-3712778D01*
G01X6907917Y-3713211D01*
G01X6909016Y-3713711D01*
G01X6909545Y-3713428D01*
G01X6909697Y-3712224D01*
G01X6909699Y-3711916D01*
G01X6909520Y-3710330D01*
G01X6909038Y-3709735D01*
G01X6908335Y-3710170D01*
G01X6907803Y-3711016D01*
G01X6907282Y-3712165D01*
G01X6902508Y-3712165D01*
G01X6901363Y-3711673D01*
G01X6898994Y-3710559D01*
G01X6903470Y-3710559D01*
G01X6903674Y-3711383D01*
G01X6904521Y-3711609D01*
G01X6905079Y-3711203D01*
G01X6905302Y-3709897D01*
G01X6905311Y-3709415D01*
G01X6905229Y-3707830D01*
G01X6904963Y-3707323D01*
G01X6904483Y-3707882D01*
G01X6903962Y-3708998D01*
G01X6903470Y-3710559D01*
G01X6898994Y-3710559D01*
G01X6896195Y-3709242D01*
G01X6891927Y-3707139D01*
G01X6887384Y-3704831D01*
G01X6891435Y-3704831D01*
G01X6891924Y-3705377D01*
G01X6892039Y-3705467D01*
G01X6892778Y-3705869D01*
G01X6893091Y-3705356D01*
G01X6893143Y-3705063D01*
G01X6893201Y-3703652D01*
G01X6893109Y-3702429D01*
G01X6892901Y-3700913D01*
G01X6892005Y-3702833D01*
G01X6891464Y-3704117D01*
G01X6891435Y-3704831D01*
G01X6887384Y-3704831D01*
G01X6886283Y-3704272D01*
G01X6881750Y-3701863D01*
G01X6886401Y-3701863D01*
G01X6886407Y-3702571D01*
G01X6886746Y-3702897D01*
G01X6887953Y-3703353D01*
G01X6888684Y-3703018D01*
G01X6888800Y-3702421D01*
G01X6888606Y-3701143D01*
G01X6888351Y-3700090D01*
G01X6887957Y-3698718D01*
G01X6886983Y-3700574D01*
G01X6886401Y-3701863D01*
G01X6881750Y-3701863D01*
G01X6881540Y-3701751D01*
G01X6878745Y-3700157D01*
G01X6882272Y-3700157D01*
G01X6882634Y-3701009D01*
G01X6883095Y-3701187D01*
G01X6883736Y-3700716D01*
G01X6883918Y-3699474D01*
G01X6883843Y-3698356D01*
G01X6883525Y-3698152D01*
G01X6883095Y-3698444D01*
G01X6882391Y-3699527D01*
G01X6882272Y-3700157D01*
G01X6878745Y-3700157D01*
G01X6877589Y-3699498D01*
G01X6875327Y-3698070D01*
G01X6879600Y-3698070D01*
G01X6879824Y-3698974D01*
G01X6880334Y-3699319D01*
G01X6880736Y-3699102D01*
G01X6881078Y-3698215D01*
G01X6880776Y-3697228D01*
G01X6880312Y-3696399D01*
G01X6879994Y-3696521D01*
G01X6879803Y-3696936D01*
G01X6879600Y-3698070D01*
G01X6875327Y-3698070D01*
G01X6874321Y-3697435D01*
G01X6871624Y-3695484D01*
G01X6869389Y-3693568D01*
G01X6867971Y-3692094D01*
G01X6883942Y-3692094D01*
G01X6884132Y-3692885D01*
G01X6884792Y-3692699D01*
G01X6885877Y-3691511D01*
G01X6885979Y-3691375D01*
G01X6886665Y-3690252D01*
G01X6886686Y-3690166D01*
G01X6889595Y-3690166D01*
G01X6889814Y-3691692D01*
G01X6889955Y-3692147D01*
G01X6890487Y-3693557D01*
G01X6890893Y-3693957D01*
G01X6891304Y-3693402D01*
G01X6891538Y-3692822D01*
G01X6892224Y-3690912D01*
G01X6892387Y-3690251D01*
G01X6894915Y-3690251D01*
G01X6895132Y-3691854D01*
G01X6895234Y-3692273D01*
G01X6895564Y-3693250D01*
G01X6895919Y-3693335D01*
G01X6896480Y-3692485D01*
G01X6896794Y-3691889D01*
G01X6897452Y-3690247D01*
G01X6897629Y-3688956D01*
G01X6897325Y-3688244D01*
G01X6896764Y-3688237D01*
G01X6895719Y-3688533D01*
G01X6895392Y-3688570D01*
G01X6895007Y-3689046D01*
G01X6894915Y-3690251D01*
G01X6892387Y-3690251D01*
G01X6892497Y-3689805D01*
G01X6892345Y-3689282D01*
G01X6891763Y-3689127D01*
G01X6891392Y-3689119D01*
G01X6890098Y-3689357D01*
G01X6889595Y-3690166D01*
G01X6886686Y-3690166D01*
G01X6886850Y-3689520D01*
G01X6886814Y-3689455D01*
G01X6885818Y-3689093D01*
G01X6884790Y-3689520D01*
G01X6884263Y-3690353D01*
G01X6883942Y-3692094D01*
G01X6867971Y-3692094D01*
G01X6867505Y-3691609D01*
G01X6865863Y-3689529D01*
G01X6864838Y-3688022D01*
G01X6863746Y-3686403D01*
G01X6862817Y-3685160D01*
G01X6862297Y-3684602D01*
G01X6861012Y-3684244D01*
G01X6858830Y-3684226D01*
G01X6855892Y-3684527D01*
G01X6852336Y-3685124D01*
G01X6848302Y-3685997D01*
G01X6843929Y-3687123D01*
G01X6841542Y-3687810D01*
G01X6840710Y-3687825D01*
G01X6840616Y-3687243D01*
G01X6841199Y-3686218D01*
G01X6842397Y-3684902D01*
G01X6842914Y-3684432D01*
G01X6846087Y-3682154D01*
G01X6849954Y-3680128D01*
G01X6854114Y-3678532D01*
G01X6858167Y-3677544D01*
G01X6858496Y-3677494D01*
G01X6860623Y-3677247D01*
G01X6862618Y-3677189D01*
G01X6864669Y-3677353D01*
G01X6866964Y-3677777D01*
G01X6869690Y-3678496D01*
G01X6873034Y-3679545D01*
G01X6877184Y-3680960D01*
G01X6877832Y-3681187D01*
G01X6883013Y-3682821D01*
G01X6887477Y-3683813D01*
G01X6891383Y-3684182D01*
G01X6894890Y-3683946D01*
G01X6897196Y-3683430D01*
G01X6898597Y-3683099D01*
G01X6900318Y-3682856D01*
G01X6902531Y-3682689D01*
G01X6905407Y-3682588D01*
G01X6909116Y-3682542D01*
G01X6911498Y-3682536D01*
G01X6915597Y-3682527D01*
G01X6918811Y-3682470D01*
G01X6921351Y-3682319D01*
G01X6923428Y-3682029D01*
G01X6925255Y-3681554D01*
G01X6927041Y-3680850D01*
G01X6929000Y-3679870D01*
G01X6931342Y-3678570D01*
G01X6932170Y-3678100D01*
G01X6936116Y-3676130D01*
G01X6939506Y-3675043D01*
G01X6942413Y-3674824D01*
G01X6944912Y-3675460D01*
G01X6945232Y-3675616D01*
G01X6946963Y-3676201D01*
G01X6948114Y-3675903D01*
G01X6948625Y-3674744D01*
G01X6948646Y-3674334D01*
G01X6948151Y-3672629D01*
G01X6946839Y-3671373D01*
G01X6944971Y-3670809D01*
G01X6944830Y-3670801D01*
G01X6943765Y-3670683D01*
G01X6943381Y-3670213D01*
G01X6943463Y-3669059D01*
G01X6943510Y-3668758D01*
G01X6943601Y-3667296D01*
G01X6943160Y-3666382D01*
G01X6942549Y-3665878D01*
G01X6941213Y-3665264D01*
G01X6939698Y-3665018D01*
G01X6938268Y-3665100D01*
G01X6937185Y-3665471D01*
G01X6936715Y-3666090D01*
G01X6936946Y-3666724D01*
G01X6937644Y-3668093D01*
G01X6937887Y-3669570D01*
G01X6937682Y-3670457D01*
G01X6937110Y-3670555D01*
G01X6935953Y-3669860D01*
G01X6934526Y-3668674D01*
G01X6932878Y-3667348D01*
G01X6931322Y-3666324D01*
G01X6930317Y-3665866D01*
G01X6928375Y-3665907D01*
G01X6926246Y-3666830D01*
G01X6924174Y-3668512D01*
G01X6923348Y-3669453D01*
G01X6922067Y-3670853D01*
G01X6920731Y-3671976D01*
G01X6919499Y-3672761D01*
G01X6918527Y-3673143D01*
G01X6917972Y-3673060D01*
G01X6917992Y-3672451D01*
G01X6918702Y-3671306D01*
G01X6920155Y-3669401D01*
G01X6918630Y-3669113D01*
G01X6913947Y-3668057D01*
G01X6908858Y-3666612D01*
G01X6903667Y-3664885D01*
G01X6898678Y-3662984D01*
G01X6894195Y-3661016D01*
G01X6890774Y-3659238D01*
G01X6887483Y-3657336D01*
G01X6889540Y-3657320D01*
G01X6890863Y-3657232D01*
G01X6891564Y-3657035D01*
G01X6891597Y-3656976D01*
G01X6891214Y-3656073D01*
G01X6890265Y-3654834D01*
G01X6889049Y-3653597D01*
G01X6887868Y-3652701D01*
G01X6887741Y-3652632D01*
G01X6885963Y-3652068D01*
G01X6883763Y-3651825D01*
G01X6881719Y-3651946D01*
G01X6880950Y-3652149D01*
G01X6880664Y-3652499D01*
G01X6881040Y-3653185D01*
G01X6882170Y-3654343D01*
G01X6882846Y-3654962D01*
G01X6884456Y-3656497D01*
G01X6885209Y-3657426D01*
G01X6885099Y-3657734D01*
G01X6884121Y-3657404D01*
G01X6883538Y-3657116D01*
G01X6881905Y-3656465D01*
G01X6880002Y-3655952D01*
G01X6879785Y-3655911D01*
G01X6877609Y-3655522D01*
G01X6879326Y-3657372D01*
G01X6880688Y-3659005D01*
G01X6881729Y-3660559D01*
G01X6882247Y-3661724D01*
G01X6882272Y-3661922D01*
G01X6881861Y-3661746D01*
G01X6880748Y-3661034D01*
G01X6879111Y-3659907D01*
G01X6877472Y-3658733D01*
G01X6873350Y-3655895D01*
G01X6869844Y-3653863D01*
G01X6866849Y-3652618D01*
G01X6864257Y-3652141D01*
G01X6861965Y-3652412D01*
G01X6859865Y-3653411D01*
G01X6857862Y-3655109D01*
G01X6856425Y-3656406D01*
G01X6854902Y-3657320D01*
G01X6853013Y-3657960D01*
G01X6850475Y-3658434D01*
G01X6848536Y-3658682D01*
G01X6844770Y-3659437D01*
G01X6840457Y-3660911D01*
G01X6835509Y-3663136D01*
G01X6833458Y-3664178D01*
G01X6828789Y-3666615D01*
G01X6832603Y-3663056D01*
G01X6834352Y-3661411D01*
G01X6835379Y-3660372D01*
G01X6835769Y-3659799D01*
G01X6835605Y-3659554D01*
G01X6834973Y-3659498D01*
G01X6834760Y-3659497D01*
G01X6832683Y-3659750D01*
G01X6830023Y-3660432D01*
G01X6827151Y-3661432D01*
G01X6824438Y-3662635D01*
G01X6824416Y-3662646D01*
G01X6821526Y-3664524D01*
G01X6818590Y-3667151D01*
G01X6815888Y-3670229D01*
G01X6813704Y-3673460D01*
G01X6813109Y-3674582D01*
G01X6812214Y-3676507D01*
G01X6811660Y-3678062D01*
G01X6811366Y-3679639D01*
G01X6811252Y-3681627D01*
G01X6811235Y-3683633D01*
G01X6803211Y-3683633D01*
G01X6804615Y-3678760D01*
G01X6806546Y-3674445D01*
G01X6807427Y-3672630D01*
G01X6807967Y-3671253D01*
G01X6808083Y-3670536D01*
G01X6808010Y-3670481D01*
G01X6807203Y-3670685D01*
G01X6805739Y-3671201D01*
G01X6804321Y-3671759D01*
G01X6801247Y-3673024D01*
G01X6800591Y-3670467D01*
G01X6799900Y-3668620D01*
G01X6798856Y-3666766D01*
G01X6797661Y-3665182D01*
G01X6796514Y-3664142D01*
G01X6795820Y-3663886D01*
G01X6794943Y-3664121D01*
G01X6793436Y-3664736D01*
G01X6791770Y-3665527D01*
G01X6788519Y-3667169D01*
G01X6788148Y-3665116D01*
G01X6787469Y-3662572D01*
G01X6786340Y-3660566D01*
G01X6785564Y-3659635D01*
G01X6784556Y-3658768D01*
G01X6783475Y-3658493D01*
G01X6782087Y-3658835D01*
G01X6780154Y-3659820D01*
G01X6779310Y-3660319D01*
G01X6777378Y-3661456D01*
G01X6776191Y-3662038D01*
G01X6775571Y-3662103D01*
G01X6775336Y-3661684D01*
G01X6775305Y-3661116D01*
G01X6774946Y-3659607D01*
G01X6774020Y-3657858D01*
G01X6772753Y-3656158D01*
G01X6771373Y-3654797D01*
G01X6770107Y-3654066D01*
G01X6769752Y-3654012D01*
G01X6769040Y-3654289D01*
G01X6767720Y-3655010D01*
G01X6766299Y-3655880D01*
G01X6763380Y-3657747D01*
G01X6762763Y-3655689D01*
G01X6761909Y-3653759D01*
G01X6760693Y-3652106D01*
G01X6759360Y-3651010D01*
G01X6758409Y-3650721D01*
G01X6757372Y-3651015D01*
G01X6755878Y-3651766D01*
G01X6754976Y-3652327D01*
G01X6753282Y-3653342D01*
G01X6752260Y-3653606D01*
G01X6751787Y-3653127D01*
G01X6751716Y-3652471D01*
G01X6751346Y-3651087D01*
G01X6750442Y-3649531D01*
G01X6749306Y-3648245D01*
G01X6748456Y-3647713D01*
G01X6747304Y-3647748D01*
G01X6745799Y-3648573D01*
G01X6745182Y-3649038D01*
G01X6743051Y-3650726D01*
G01X6742436Y-3648964D01*
G01X6741246Y-3646636D01*
G01X6739682Y-3645214D01*
G01X6737865Y-3644759D01*
G01X6735914Y-3645329D01*
G01X6735567Y-3645540D01*
G01X6734636Y-3646060D01*
G01X6734194Y-3645815D01*
G01X6733912Y-3644786D01*
G01X6733245Y-3643237D01*
G01X6732236Y-3641936D01*
G01X6731126Y-3641131D01*
G01X6729858Y-3640889D01*
G01X6728561Y-3640988D01*
G01X6727166Y-3641105D01*
G01X6726239Y-3640882D01*
G01X6725398Y-3640125D01*
G01X6724435Y-3638871D01*
G01X6723503Y-3637551D01*
G01X6722958Y-3636675D01*
G01X6722895Y-3636458D01*
G01X6723451Y-3636683D01*
G01X6724797Y-3637295D01*
G01X6726739Y-3638205D01*
G01X6729080Y-3639322D01*
G01X6729333Y-3639444D01*
G01X6732615Y-3640977D01*
G01X6735782Y-3642348D01*
G01X6739001Y-3643610D01*
G01X6742441Y-3644821D01*
G01X6746268Y-3646036D01*
G01X6750651Y-3647309D01*
G01X6755756Y-3648698D01*
G01X6761752Y-3650257D01*
G01X6762316Y-3650402D01*
G01X6771007Y-3652738D01*
G01X6779510Y-3655250D01*
G01X6787630Y-3657873D01*
G01X6795173Y-3660541D01*
G01X6801942Y-3663189D01*
G01X6805655Y-3664789D01*
G01X6811049Y-3667213D01*
G01X6812201Y-3665687D01*
G01X6813204Y-3664494D01*
G01X6814662Y-3662915D01*
G01X6816043Y-3661509D01*
G01X6817354Y-3660171D01*
G01X6818252Y-3659164D01*
G01X6818553Y-3658698D01*
G01X6818549Y-3658693D01*
G01X6818010Y-3658391D01*
G01X6816717Y-3657719D01*
G01X6814901Y-3656796D01*
G01X6813869Y-3656278D01*
G01X6809372Y-3654028D01*
G01X6804946Y-3656023D01*
G01X6802944Y-3656878D01*
G01X6801337Y-3657475D01*
G01X6800371Y-3657728D01*
G01X6800211Y-3657707D01*
G01X6800205Y-3657006D01*
G01X6800757Y-3655789D01*
G01X6801706Y-3654367D01*
G01X6802333Y-3653617D01*
G01X6803441Y-3652400D01*
G01X6801853Y-3651779D01*
G01X6798972Y-3650683D01*
G01X6796826Y-3649998D01*
G01X6795138Y-3649714D01*
G01X6793632Y-3649816D01*
G01X6792031Y-3650293D01*
G01X6790059Y-3651131D01*
G01X6789830Y-3651235D01*
G01X6788100Y-3651951D01*
G01X6786836Y-3652346D01*
G01X6786283Y-3652344D01*
G01X6786276Y-3652314D01*
G01X6786473Y-3651498D01*
G01X6786960Y-3650153D01*
G01X6787096Y-3649822D01*
G01X6787565Y-3648471D01*
G01X6787703Y-3647574D01*
G01X6787673Y-3647470D01*
G01X6787059Y-3647158D01*
G01X6785659Y-3646694D01*
G01X6783755Y-3646169D01*
G01X6783425Y-3646086D01*
G01X6779420Y-3645092D01*
G01X6776128Y-3647082D01*
G01X6774445Y-3648071D01*
G01X6773139Y-3648783D01*
G01X6772481Y-3649073D01*
G01X6772470Y-3649074D01*
G01X6772359Y-3648613D01*
G01X6772551Y-3647470D01*
G01X6772635Y-3647148D01*
G01X6772955Y-3645662D01*
G01X6772753Y-3644755D01*
G01X6771839Y-3644126D01*
G01X6770376Y-3643592D01*
G01X6769034Y-3643222D01*
G01X6767871Y-3643171D01*
G01X6766471Y-3643471D01*
G01X6764726Y-3644049D01*
G01X6762934Y-3644660D01*
G01X6761574Y-3645090D01*
G01X6760962Y-3645241D01*
G01X6760740Y-3644759D01*
G01X6760684Y-3643598D01*
G01X6760688Y-3643511D01*
G01X6760629Y-3642394D01*
G01X6760130Y-3641715D01*
G01X6758915Y-3641162D01*
G01X6758464Y-3641005D01*
G01X6756976Y-3640577D01*
G01X6755819Y-3640557D01*
G01X6754467Y-3640984D01*
G01X6753594Y-3641358D01*
G01X6751720Y-3642140D01*
G01X6750654Y-3642405D01*
G01X6750222Y-3642130D01*
G01X6750255Y-3641292D01*
G01X6750329Y-3640925D01*
G01X6750459Y-3639967D01*
G01X6750147Y-3639390D01*
G01X6749156Y-3638949D01*
G01X6748088Y-3638635D01*
G01X6746302Y-3638234D01*
G01X6744867Y-3638263D01*
G01X6743150Y-3638748D01*
G01X6742914Y-3638830D01*
G01X6741142Y-3639445D01*
G01X6740210Y-3639643D01*
G01X6739921Y-3639361D01*
G01X6740076Y-3638534D01*
G01X6740237Y-3637971D01*
G01X6740580Y-3636758D01*
G01X6740745Y-3636148D01*
G01X6740747Y-3636134D01*
G01X6740301Y-3635897D01*
G01X6739182Y-3635372D01*
G01X6738669Y-3635140D01*
G01X6736997Y-3634557D01*
G01X6735658Y-3634595D01*
G01X6735068Y-3634782D01*
G01X6733665Y-3635251D01*
G01X6732999Y-3635146D01*
G01X6732798Y-3634323D01*
G01X6732788Y-3633579D01*
G01X6732793Y-3631796D01*
G01X6729502Y-3631645D01*
G01X6727168Y-3631509D01*
G01X6725784Y-3631295D01*
G01X6725203Y-3630902D01*
G01X6725279Y-3630227D01*
G01X6725864Y-3629170D01*
G01X6725884Y-3629137D01*
G01X6726522Y-3627892D01*
G01X6726710Y-3627055D01*
G01X6726660Y-3626943D01*
G01X6725959Y-3626751D01*
G01X6724507Y-3626621D01*
G01X6723038Y-3626585D01*
G01X6721265Y-3626566D01*
G01X6720315Y-3626364D01*
G01X6720072Y-3625756D01*
G01X6720421Y-3624525D01*
G01X6721082Y-3622857D01*
G01X6721433Y-3621373D01*
G01X6720971Y-3620476D01*
G01X6719605Y-3620066D01*
G01X6718485Y-3620010D01*
G01X6717181Y-3619899D01*
G01X6716436Y-3619644D01*
G01X6716496Y-3619018D01*
G01X6717015Y-3617755D01*
G01X6717716Y-3616423D01*
G01X6717921Y-3616050D01*
G01X6723919Y-3616050D01*
G01X6724867Y-3620008D01*
G01X6726846Y-3623735D01*
G01X6729804Y-3627183D01*
G01X6733691Y-3630304D01*
G01X6738456Y-3633051D01*
G01X6744047Y-3635375D01*
G01X6744762Y-3635620D01*
G01X6746825Y-3636205D01*
G01X6749668Y-3636865D01*
G01X6752984Y-3637534D01*
G01X6756464Y-3638150D01*
G01X6758202Y-3638422D01*
G01X6767975Y-3639930D01*
G01X6776759Y-3641402D01*
G01X6784657Y-3642863D01*
G01X6791774Y-3644338D01*
G01X6798216Y-3645852D01*
G01X6804087Y-3647431D01*
G01X6809493Y-3649098D01*
G01X6814538Y-3650879D01*
G01X6819328Y-3652798D01*
G01X6820012Y-3653092D01*
G01X6822091Y-3653929D01*
G01X6823850Y-3654526D01*
G01X6825004Y-3654790D01*
G01X6825223Y-3654784D01*
G01X6826101Y-3654540D01*
G01X6827733Y-3654067D01*
G01X6829821Y-3653451D01*
G01X6830668Y-3653198D01*
G01X6832772Y-3652577D01*
G01X6834453Y-3652094D01*
G01X6835451Y-3651824D01*
G01X6835605Y-3651792D01*
G01X6835332Y-3651620D01*
G01X6834285Y-3651210D01*
G01X6833451Y-3650914D01*
G01X6831700Y-3650119D01*
G01X6830244Y-3649138D01*
G01X6829886Y-3648787D01*
G01X6828758Y-3647855D01*
G01X6827054Y-3646845D01*
G01X6825881Y-3646294D01*
G01X6822973Y-3645076D01*
G01X6818012Y-3646292D01*
G01X6815819Y-3646790D01*
G01X6814048Y-3647117D01*
G01X6812952Y-3647230D01*
G01X6812732Y-3647189D01*
G01X6812865Y-3646635D01*
G01X6813592Y-3645651D01*
G01X6813881Y-3645337D01*
G01X6814831Y-3644205D01*
G01X6815328Y-3643337D01*
G01X6815349Y-3643215D01*
G01X6814871Y-3642728D01*
G01X6813643Y-3642076D01*
G01X6811974Y-3641377D01*
G01X6810174Y-3640752D01*
G01X6808552Y-3640322D01*
G01X6807561Y-3640197D01*
G01X6806430Y-3640381D01*
G01X6804646Y-3640854D01*
G01X6802584Y-3641517D01*
G01X6802459Y-3641561D01*
G01X6800557Y-3642188D01*
G01X6799075Y-3642598D01*
G01X6798296Y-3642714D01*
G01X6798259Y-3642702D01*
G01X6798167Y-3642097D01*
G01X6798401Y-3640872D01*
G01X6798488Y-3640572D01*
G01X6798790Y-3639229D01*
G01X6798777Y-3638380D01*
G01X6798734Y-3638311D01*
G01X6798053Y-3638013D01*
G01X6796634Y-3637590D01*
G01X6795153Y-3637220D01*
G01X6793425Y-3636861D01*
G01X6792091Y-3636762D01*
G01X6790741Y-3636957D01*
G01X6788960Y-3637481D01*
G01X6787902Y-3637836D01*
G01X6785928Y-3638487D01*
G01X6784351Y-3638970D01*
G01X6783463Y-3639195D01*
G01X6783396Y-3639201D01*
G01X6783107Y-3638727D01*
G01X6783070Y-3637574D01*
G01X6783081Y-3637453D01*
G01X6783121Y-3636437D01*
G01X6782814Y-3635825D01*
G01X6781914Y-3635395D01*
G01X6780332Y-3634963D01*
G01X6778531Y-3634571D01*
G01X6777164Y-3634534D01*
G01X6775691Y-3634885D01*
G01X6774415Y-3635340D01*
G01X6772259Y-3636092D01*
G01X6770905Y-3636375D01*
G01X6770152Y-3636174D01*
G01X6769802Y-3635470D01*
G01X6769719Y-3634950D01*
G01X6769084Y-3633654D01*
G01X6767612Y-3632938D01*
G01X6765407Y-3632820D01*
G01X6762574Y-3633315D01*
G01X6761567Y-3633602D01*
G01X6758026Y-3634694D01*
G01X6757752Y-3633284D01*
G01X6756981Y-3632004D01*
G01X6755282Y-3631304D01*
G01X6752656Y-3631184D01*
G01X6751285Y-3631307D01*
G01X6749478Y-3631442D01*
G01X6748629Y-3631288D01*
G01X6748542Y-3631028D01*
G01X6748159Y-3630516D01*
G01X6748012Y-3630424D01*
G01X6764609Y-3630424D01*
G01X6765380Y-3630881D01*
G01X6766045Y-3630973D01*
G01X6766783Y-3630757D01*
G01X6766789Y-3630653D01*
G01X6778597Y-3630653D01*
G01X6779086Y-3631563D01*
G01X6780558Y-3631995D01*
G01X6781013Y-3632027D01*
G01X6781715Y-3631998D01*
G01X6781643Y-3631641D01*
G01X6781384Y-3631342D01*
G01X6792719Y-3631342D01*
G01X6792906Y-3631933D01*
G01X6793600Y-3632865D01*
G01X6794921Y-3633165D01*
G01X6795120Y-3633167D01*
G01X6796289Y-3633127D01*
G01X6796505Y-3632851D01*
G01X6795909Y-3632107D01*
G01X6795830Y-3632019D01*
G01X6794430Y-3630718D01*
G01X6793354Y-3630168D01*
G01X6792739Y-3630375D01*
G01X6792719Y-3631342D01*
G01X6781384Y-3631342D01*
G01X6781065Y-3630973D01*
G01X6779975Y-3630104D01*
G01X6779064Y-3629927D01*
G01X6778609Y-3630477D01*
G01X6778597Y-3630653D01*
G01X6766789Y-3630653D01*
G01X6766803Y-3630424D01*
G01X6766032Y-3629968D01*
G01X6765367Y-3629876D01*
G01X6764629Y-3630092D01*
G01X6764609Y-3630424D01*
G01X6748012Y-3630424D01*
G01X6747001Y-3629791D01*
G01X6745431Y-3629056D01*
G01X6741552Y-3627154D01*
G01X6738695Y-3625027D01*
G01X6736794Y-3622597D01*
G01X6735783Y-3619784D01*
G01X6735570Y-3617259D01*
G01X6736149Y-3613817D01*
G01X6737774Y-3610421D01*
G01X6740394Y-3607112D01*
G01X6743958Y-3603934D01*
G01X6748415Y-3600929D01*
G01X6753713Y-3598140D01*
G01X6759802Y-3595610D01*
G01X6762689Y-3594599D01*
G01X6765826Y-3593610D01*
G01X6768983Y-3592732D01*
G01X6772285Y-3591946D01*
G01X6775854Y-3591232D01*
G01X6779815Y-3590571D01*
G01X6784292Y-3589944D01*
G01X6789407Y-3589331D01*
G01X6795286Y-3588713D01*
G01X6802051Y-3588070D01*
G01X6807289Y-3587602D01*
G01X6818915Y-3586586D01*
G01X6807121Y-3586864D01*
G01X6797572Y-3587188D01*
G01X6789006Y-3587695D01*
G01X6781321Y-3588402D01*
G01X6774417Y-3589325D01*
G01X6768193Y-3590480D01*
G01X6762546Y-3591883D01*
G01X6757377Y-3593550D01*
G01X6752583Y-3595498D01*
G01X6752202Y-3595672D01*
G01X6746048Y-3598814D01*
G01X6740894Y-3602149D01*
G01X6736652Y-3605733D01*
G01X6735750Y-3606648D01*
G01X6733490Y-3609199D01*
G01X6731972Y-3611398D01*
G01X6731042Y-3613530D01*
G01X6730547Y-3615878D01*
G01X6730486Y-3616405D01*
G01X6730453Y-3618862D01*
G01X6731011Y-3621127D01*
G01X6731347Y-3621966D01*
G01X6732504Y-3624665D01*
G01X6730259Y-3622197D01*
G01X6727682Y-3618862D01*
G01X6726107Y-3615645D01*
G01X6725551Y-3612602D01*
G01X6726031Y-3609788D01*
G01X6726262Y-3609238D01*
G01X6727930Y-3606671D01*
G01X6730554Y-3603961D01*
G01X6734013Y-3601193D01*
G01X6738191Y-3598450D01*
G01X6742969Y-3595818D01*
G01X6748227Y-3593379D01*
G01X6749101Y-3593015D01*
G01X6751008Y-3592203D01*
G01X6752425Y-3591547D01*
G01X6753129Y-3591153D01*
G01X6753164Y-3591095D01*
G01X6752523Y-3591127D01*
G01X6751090Y-3591517D01*
G01X6749079Y-3592187D01*
G01X6746703Y-3593058D01*
G01X6744178Y-3594051D01*
G01X6741717Y-3595088D01*
G01X6739534Y-3596089D01*
G01X6739376Y-3596166D01*
G01X6734153Y-3599086D01*
G01X6730004Y-3602198D01*
G01X6726923Y-3605512D01*
G01X6724901Y-3609036D01*
G01X6723931Y-3612780D01*
G01X6723919Y-3616050D01*
G01X6717921Y-3616050D01*
G01X6718588Y-3614834D01*
G01X6719182Y-3613628D01*
G01X6719354Y-3613144D01*
G01X6718880Y-3612948D01*
G01X6717713Y-3612998D01*
G01X6717434Y-3613039D01*
G01X6716175Y-3613128D01*
G01X6715535Y-3612948D01*
G01X6715514Y-3612883D01*
G01X6715897Y-3612304D01*
G01X6716894Y-3611259D01*
G01X6718119Y-3610127D01*
G01X6719432Y-3608809D01*
G01X6720516Y-3607431D01*
G01X6721230Y-3606222D01*
G01X6721436Y-3605407D01*
G01X6721163Y-3605191D01*
G01X6720386Y-3605548D01*
G01X6719037Y-3606505D01*
G01X6717323Y-3607888D01*
G01X6715450Y-3609525D01*
G01X6713627Y-3611243D01*
G01X6712421Y-3612476D01*
G01X6710185Y-3615163D01*
G01X6708116Y-3618183D01*
G01X6706434Y-3621182D01*
G01X6705366Y-3623785D01*
G01X6705183Y-3624602D01*
G01X6705473Y-3624915D01*
G01X6706486Y-3624852D01*
G01X6707223Y-3624738D01*
G01X6708611Y-3624569D01*
G01X6709407Y-3624574D01*
G01X6709480Y-3624624D01*
G01X6709144Y-3625142D01*
G01X6708298Y-3626156D01*
G01X6707850Y-3626656D01*
G01X6706932Y-3627906D01*
G01X6706026Y-3629527D01*
G01X6705267Y-3631208D01*
G01X6704793Y-3632642D01*
G01X6704740Y-3633518D01*
G01X6704791Y-3633598D01*
G01X6705419Y-3633602D01*
G01X6706627Y-3633286D01*
G01X6706791Y-3633231D01*
G01X6708643Y-3632682D01*
G01X6709554Y-3632666D01*
G01X6709548Y-3633195D01*
G01X6708795Y-3634127D01*
G01X6706992Y-3636748D01*
G01X6706219Y-3639740D01*
G01X6706189Y-3640517D01*
G01X6706300Y-3642017D01*
G01X6706721Y-3642595D01*
G01X6707586Y-3642280D01*
G01X6709014Y-3641111D01*
G01X6710357Y-3640037D01*
G01X6711479Y-3639366D01*
G01X6712213Y-3639143D01*
G01X6712389Y-3639410D01*
G01X6711839Y-3640211D01*
G01X6711631Y-3640435D01*
G01X6709982Y-3642799D01*
G01X6709103Y-3645482D01*
G01X6709062Y-3648168D01*
G01X6709555Y-3649845D01*
G01X6710180Y-3651214D01*
G01X6712542Y-3648784D01*
G01X6714341Y-3647097D01*
G01X6716182Y-3645640D01*
G01X6717809Y-3644595D01*
G01X6718967Y-3644146D01*
G01X6719057Y-3644140D01*
G01X6718995Y-3644489D01*
G01X6718306Y-3645398D01*
G01X6717329Y-3646469D01*
G01X6714063Y-3650462D01*
G01X6711513Y-3654857D01*
G01X6709803Y-3659406D01*
G01X6709153Y-3662736D01*
G01X6708870Y-3665257D01*
G01X6710289Y-3662431D01*
G01X6711223Y-3660741D01*
G01X6712119Y-3659399D01*
G01X6712582Y-3658878D01*
G01X6713069Y-3658567D01*
G01X6713265Y-3658835D01*
G01X6713210Y-3659870D01*
G01X6713056Y-3661066D01*
G01X6712951Y-3663235D01*
G01X6713155Y-3665444D01*
G01X6713605Y-3667384D01*
G01X6714237Y-3668749D01*
G01X6714743Y-3669193D01*
G01X6714757Y-3669689D01*
G01X6713965Y-3670793D01*
G01X6712419Y-3672435D01*
G01X6712280Y-3672571D01*
G01X6708629Y-3676676D01*
G01X6705840Y-3680933D01*
G01X6703946Y-3685240D01*
G01X6702982Y-3689493D01*
G01X6697942Y-3689493D01*
G01X6697970Y-3689133D01*
G01X6699455Y-3683763D01*
G01X6702022Y-3678236D01*
G01X6702959Y-3676621D01*
G01X6705706Y-3672077D01*
G01X6703758Y-3669423D01*
G01X6700449Y-3664038D01*
G01X6697901Y-3658009D01*
G01X6696188Y-3651550D01*
G01X6695401Y-3645235D01*
G01X6695570Y-3638857D01*
G01X6696753Y-3632404D01*
G01X6698897Y-3626052D01*
G01X6701947Y-3619976D01*
G01X6704233Y-3616476D01*
G01X6706776Y-3613320D01*
G01X6709978Y-3609933D01*
G01X6713532Y-3606604D01*
G01X6717130Y-3603622D01*
G01X6720279Y-3601391D01*
G01X6722872Y-3599596D01*
G01X6724818Y-3597937D01*
G01X6725883Y-3596656D01*
G01X6726837Y-3595363D01*
G01X6727906Y-3594833D01*
G01X6728798Y-3594763D01*
G01X6731431Y-3594643D01*
G01X6733296Y-3594212D01*
G01X6734710Y-3593329D01*
G01X6735989Y-3591853D01*
G01X6736281Y-3591438D01*
G01X6738124Y-3588759D01*
G01X6742253Y-3589108D01*
G01X6746382Y-3589457D01*
G01X6748660Y-3586831D01*
G01X6750937Y-3584206D01*
G01X6753823Y-3584825D01*
G01X6756423Y-3585304D01*
G01X6758310Y-3585384D01*
G01X6759813Y-3585004D01*
G01X6761263Y-3584102D01*
G01X6762284Y-3583249D01*
G01X6763730Y-3582079D01*
G01X6764933Y-3581286D01*
G01X6765516Y-3581062D01*
G01X6766391Y-3581222D01*
G01X6767962Y-3581634D01*
G01X6769796Y-3582179D01*
G01X6771374Y-3582689D01*
G01X6772465Y-3582969D01*
G01X6773339Y-3582947D01*
G01X6774268Y-3582553D01*
G01X6775521Y-3581712D01*
G01X6777371Y-3580352D01*
G01X6777787Y-3580048D01*
G01X6779447Y-3578838D01*
G01X6782851Y-3580221D01*
G01X6784717Y-3580931D01*
G01X6786255Y-3581430D01*
G01X6787087Y-3581604D01*
G01X6787951Y-3581300D01*
G01X6789352Y-3580510D01*
G01X6790690Y-3579614D01*
G01X6793460Y-3577624D01*
G01X6797372Y-3579352D01*
G01X6801284Y-3581080D01*
G01X6804092Y-3579215D01*
G01X6806900Y-3577351D01*
G01X6810377Y-3578929D01*
G01X6812228Y-3579723D01*
G01X6813745Y-3580289D01*
G01X6814601Y-3580507D01*
G01X6814603Y-3580507D01*
G01X6815462Y-3580232D01*
G01X6816867Y-3579527D01*
G01X6817923Y-3578907D01*
G01X6820494Y-3577306D01*
G01X6824109Y-3579127D01*
G01X6827725Y-3580948D01*
G01X6830766Y-3579060D01*
G01X6833807Y-3577172D01*
G01X6836333Y-3578255D01*
G01X6838859Y-3579337D01*
G01X6845976Y-3577493D01*
G01X6853756Y-3575195D01*
G01X6860573Y-3572572D01*
G01X6866525Y-3569580D01*
G01X6871709Y-3566176D01*
G01X6871712Y-3566174D01*
G01X6873165Y-3565130D01*
G01X6874200Y-3564474D01*
G01X6874592Y-3564346D01*
G01X6874306Y-3565092D01*
G37*
G36*
G01X6944562Y-3683305D02*
G01X6945396Y-3684035D01*
G01X6945879Y-3684846D01*
G01X6945903Y-3685036D01*
G01X6945630Y-3685754D01*
G01X6944877Y-3685554D01*
G01X6944012Y-3684762D01*
G01X6943354Y-3683759D01*
G01X6943244Y-3683108D01*
G01X6943728Y-3682912D01*
G01X6944562Y-3683305D01*
G37*
G36*
G01X6935298Y-3684913D02*
G01X6935223Y-3685239D01*
G01X6934932Y-3685279D01*
G01X6934481Y-3685078D01*
G01X6934567Y-3684913D01*
G01X6935218Y-3684848D01*
G01X6935298Y-3684913D01*
G37*
G36*
G01X6930395Y-3669649D02*
G01X6930489Y-3670469D01*
G01X6929984Y-3670991D01*
G01X6929766Y-3671017D01*
G01X6928560Y-3671209D01*
G01X6928120Y-3671350D01*
G01X6927381Y-3671303D01*
G01X6927253Y-3670868D01*
G01X6927691Y-3669773D01*
G01X6928696Y-3669051D01*
G01X6929714Y-3669018D01*
G01X6930395Y-3669649D01*
G37*
G36*
G01X6868620Y-3657137D02*
G01X6871816Y-3658343D01*
G01X6874213Y-3660029D01*
G01X6875986Y-3661490D01*
G01X6878092Y-3663128D01*
G01X6879418Y-3664112D01*
G01X6880863Y-3665207D01*
G01X6881833Y-3666038D01*
G01X6882115Y-3666420D01*
G01X6881509Y-3666433D01*
G01X6880157Y-3666253D01*
G01X6878802Y-3666005D01*
G01X6876854Y-3665686D01*
G01X6875394Y-3665722D01*
G01X6873854Y-3666164D01*
G01X6872878Y-3666554D01*
G01X6869298Y-3667500D01*
G01X6865351Y-3667614D01*
G01X6861381Y-3666896D01*
G01X6860330Y-3666551D01*
G01X6858537Y-3666001D01*
G01X6856706Y-3665697D01*
G01X6854466Y-3665600D01*
G01X6851973Y-3665651D01*
G01X6849760Y-3665697D01*
G01X6848080Y-3665667D01*
G01X6847144Y-3665568D01*
G01X6847036Y-3665469D01*
G01X6847702Y-3665098D01*
G01X6849117Y-3664442D01*
G01X6851012Y-3663624D01*
G01X6851626Y-3663369D01*
G01X6854157Y-3662170D01*
G01X6854414Y-3662024D01*
G01X6862674Y-3662024D01*
G01X6863220Y-3663110D01*
G01X6864770Y-3664127D01*
G01X6864847Y-3664162D01*
G01X6866253Y-3664740D01*
G01X6867149Y-3664916D01*
G01X6868032Y-3664730D01*
G01X6868722Y-3664476D01*
G01X6870055Y-3663615D01*
G01X6870469Y-3662549D01*
G01X6870066Y-3661476D01*
G01X6868950Y-3660592D01*
G01X6867222Y-3660094D01*
G01X6866408Y-3660046D01*
G01X6864332Y-3660322D01*
G01X6863066Y-3661038D01*
G01X6862674Y-3662024D01*
G01X6854414Y-3662024D01*
G01X6856784Y-3660677D01*
G01X6858942Y-3659213D01*
G01X6858960Y-3659199D01*
G01X6860750Y-3657883D01*
G01X6862109Y-3657143D01*
G01X6863418Y-3656820D01*
G01X6864858Y-3656755D01*
G01X6868620Y-3657137D01*
G37*
G36*
G01X6866710Y-3661381D02*
G01X6866677Y-3661629D01*
G01X6866886Y-3662121D01*
G01X6867605Y-3662452D01*
G01X6868415Y-3662778D01*
G01X6868240Y-3663167D01*
G01X6868010Y-3663329D01*
G01X6866627Y-3663856D01*
G01X6865633Y-3663520D01*
G01X6865261Y-3662623D01*
G01X6865436Y-3661653D01*
G01X6866048Y-3661147D01*
G01X6866122Y-3661143D01*
G01X6866710Y-3661381D01*
G37*
G54D12*
G01X5147638Y-3494094D02*
G01X5206693Y-3494094D01*
G01X5305118Y-3444882D02*
G01X5305118Y-3267717D01*
G01X5049213Y-3267717D02*
G01X5049213Y-3444882D01*
G01X5206693Y-3218504D02*
G01X5147638Y-3218504D01*
G01X4734252Y-3494094D02*
G01X4793307Y-3494094D01*
G01X4891732Y-3444882D02*
G01X4891732Y-3267717D01*
G01X4635827Y-3267717D02*
G01X4635827Y-3444882D01*
G01X4793307Y-3218504D02*
G01X4734252Y-3218504D01*
G01X5569833Y-2973031D02*
G01X5549262Y-2973031D01*
G01X5569833Y-3030906D02*
G01X5549262Y-3030906D01*
G01X6948819Y-3494094D02*
G01X7007874Y-3494094D01*
G01X7106299Y-3444882D02*
G01X7106299Y-3267717D01*
G01X6850394Y-3267717D02*
G01X6850394Y-3444882D01*
G01X7007874Y-3218504D02*
G01X6948819Y-3218504D01*
G01X6358268Y-3572835D02*
G01X6358268Y-3631890D01*
G01X6407480Y-3730315D02*
G01X6584646Y-3730315D01*
G01X6584646Y-3474409D02*
G01X6407480Y-3474409D01*
G01X6633858Y-3631890D02*
G01X6633858Y-3572835D01*
G01X6633858Y-3149606D02*
G01X6633858Y-3090551D01*
G01X6584646Y-2992126D02*
G01X6407480Y-2992126D01*
G01X6407480Y-3248031D02*
G01X6584646Y-3248031D01*
G01X6358268Y-3090551D02*
G01X6358268Y-3149606D01*
G01X6118995Y-3560727D02*
G75*
G02X6081793Y-3560727I-018601J0000000D01*
G01X6081793Y-3560727D02*
G75*
G02X6118995Y-3560727I0018601J0000000D01*
G01X6233071Y-2983071D02*
G01X6233071Y-3739764D01*
G01X5732283Y-2983071D02*
G01X6233071Y-2983071D01*
G01X5732283Y-2983071D02*
G01X5732283Y-3739764D01*
G01X5914063Y-3141394D02*
G01X6059063Y-3141394D01*
G01X6066063Y-3142394D02*
G01X6066063Y-3353394D01*
G01X5907063Y-3142394D02*
G01X5907063Y-3353394D01*
G01X5914063Y-3356394D02*
G01X6059063Y-3356394D01*
G01X6066063Y-3360394D02*
G01X6066063Y-3553394D01*
G01X5907063Y-3360394D02*
G01X5907063Y-3553394D01*
G01X5914063Y-3553394D02*
G01X6059063Y-3553394D01*
G01X5732283Y-3739764D02*
G01X6233071Y-3739764D01*
G01X5817323Y-3234941D02*
G01X5803937Y-3216437D01*
G01X5803937Y-3216437D02*
G01X5830709Y-3216437D01*
G01X5830709Y-3216437D02*
G01X5817323Y-3234941D01*
G36*
G01X5817323Y-3234941D02*
G01X5803937Y-3216437D01*
G01X5830709Y-3216437D01*
G01X5817323Y-3234941D01*
G37*
G01X6124803Y-3508366D02*
G01X6124803Y-3497539D01*
G01X6124803Y-3224114D02*
G01X6124803Y-3234941D01*
G01X6113976Y-3508366D02*
G01X6124803Y-3508366D01*
G01X6113976Y-3224114D02*
G01X6124803Y-3224114D01*
G01X5851378Y-3508366D02*
G01X5840551Y-3508366D01*
G01X5851378Y-3224114D02*
G01X5840551Y-3224114D01*
G01X5840551Y-3508366D02*
G01X5840551Y-3497539D01*
G01X5840551Y-3224114D02*
G01X5840551Y-3234941D01*
G01X5699213Y-3312992D02*
G01X5699213Y-3183071D01*
G01X5699213Y-3312992D02*
G01X5482283Y-3312992D01*
G01X5699213Y-3183071D02*
G01X5482283Y-3183071D01*
M02*
