M48
INCH,TZ
T10C0.012
T11C0.031
T12C0.039
T13C0.043
T14C0.098
%
T10
X057677Y-32776
X057776Y-32283
X058760Y-32579
X058839Y-34831
X059449Y-33268
X059843Y-32677
X059914Y-35702
X060161Y-32682
X060315Y-35698
X060525Y-32691
X060735Y-34822
X060925Y-32677
X061207Y-35276
X061669Y-35070
X061813Y-32280
X067717Y-32283
T11
X057827Y-30614
X057827Y-36614
X058827Y-30614
X058827Y-36614
X059827Y-30614
X059827Y-36614
X060827Y-30614
X060827Y-36614
X061827Y-30614
X061827Y-36614
T12
X047130Y-36516
X048130Y-36516
X051280Y-36516
X052280Y-36516
X055020Y-35728
X055020Y-36728
X055102Y-31004
X056102Y-31004
X056496Y-33713
X056496Y-34713
X056496Y-35713
X056496Y-36713
X063642Y-33661
X066634Y-33661
T13
X046752Y-32283
X046752Y-34843
X048524Y-32283
X048524Y-34843
X050886Y-32283
X050886Y-34843
X052657Y-32283
X052657Y-34843
X063681Y-30315
X063681Y-32087
X063681Y-35138
X063681Y-36909
X066240Y-30315
X066240Y-32087
X066240Y-35138
X066240Y-36909
X068898Y-32283
X068898Y-34843
X070669Y-32283
X070669Y-34843
T14
X044882Y-30315
X044882Y-36614
X070472Y-30315
X070472Y-36614
M30

